solid inlet
  facet normal 0.00000000e+00 0.00000000e+00 1.00000000e+00
    outer loop
      vertex 7.50762435e-03 0.00000000e+00 7.56663596e-02
      vertex 1.37420846e-02 0.00000000e+00 7.56663596e-02
      vertex 1.35296505e-02 1.61359705e-03 7.56663596e-02
    endloop
  endfacet
  facet normal 0.00000000e+00 0.00000000e+00 1.00000000e+00
    outer loop
      vertex 7.50762435e-03 0.00000000e+00 7.56663596e-02
      vertex 1.35296505e-02 1.61359705e-03 7.56663596e-02
      vertex 1.29068253e-02 3.11723012e-03 7.56663596e-02
    endloop
  endfacet
  facet normal 0.00000000e+00 0.00000000e+00 1.00000000e+00
    outer loop
      vertex 7.50762435e-03 0.00000000e+00 7.56663596e-02
      vertex 1.29068253e-02 3.11723012e-03 7.56663596e-02
      vertex 1.19160535e-02 4.40842911e-03 7.56663596e-02
    endloop
  endfacet
  facet normal 0.00000000e+00 0.00000000e+00 1.00000000e+00
    outer loop
      vertex 7.50762435e-03 0.00000000e+00 7.56663596e-02
      vertex 1.19160535e-02 4.40842911e-03 7.56663596e-02
      vertex 1.06248545e-02 5.39920095e-03 7.56663596e-02
    endloop
  endfacet
  facet normal 0.00000000e+00 0.00000000e+00 1.00000000e+00
    outer loop
      vertex 7.50762435e-03 0.00000000e+00 7.56663596e-02
      vertex 1.06248545e-02 5.39920095e-03 7.56663596e-02
      vertex 9.12122140e-03 6.02202616e-03 7.56663596e-02
    endloop
  endfacet
  facet normal 0.00000000e+00 0.00000000e+00 1.00000000e+00
    outer loop
      vertex 7.50762435e-03 0.00000000e+00 7.56663596e-02
      vertex 9.12122140e-03 6.02202616e-03 7.56663596e-02
      vertex 7.50762435e-03 6.23446024e-03 7.56663596e-02
    endloop
  endfacet
  facet normal 0.00000000e+00 -0.00000000e+00 1.00000000e+00
    outer loop
      vertex 7.50762435e-03 0.00000000e+00 7.56663596e-02
      vertex 7.50762435e-03 6.23446024e-03 7.56663596e-02
      vertex 5.89402731e-03 6.02202616e-03 7.56663596e-02
    endloop
  endfacet
  facet normal 0.00000000e+00 0.00000000e+00 1.00000000e+00
    outer loop
      vertex 7.50762435e-03 0.00000000e+00 7.56663596e-02
      vertex 5.89402731e-03 6.02202616e-03 7.56663596e-02
      vertex 4.39039423e-03 5.39920095e-03 7.56663596e-02
    endloop
  endfacet
  facet normal 0.00000000e+00 0.00000000e+00 1.00000000e+00
    outer loop
      vertex 7.50762435e-03 0.00000000e+00 7.56663596e-02
      vertex 4.39039423e-03 5.39920095e-03 7.56663596e-02
      vertex 3.09919524e-03 4.40842911e-03 7.56663596e-02
    endloop
  endfacet
  facet normal 0.00000000e+00 0.00000000e+00 1.00000000e+00
    outer loop
      vertex 7.50762435e-03 0.00000000e+00 7.56663596e-02
      vertex 3.09919524e-03 4.40842911e-03 7.56663596e-02
      vertex 2.10842341e-03 3.11723012e-03 7.56663596e-02
    endloop
  endfacet
  facet normal 0.00000000e+00 0.00000000e+00 1.00000000e+00
    outer loop
      vertex 7.50762435e-03 0.00000000e+00 7.56663596e-02
      vertex 2.10842341e-03 3.11723012e-03 7.56663596e-02
      vertex 1.48559820e-03 1.61359705e-03 7.56663596e-02
    endloop
  endfacet
  facet normal 0.00000000e+00 0.00000000e+00 1.00000000e+00
    outer loop
      vertex 7.50762435e-03 0.00000000e+00 7.56663596e-02
      vertex 1.48559820e-03 1.61359705e-03 7.56663596e-02
      vertex 1.27316411e-03 7.63501178e-19 7.56663596e-02
    endloop
  endfacet
  facet normal 0.00000000e+00 0.00000000e+00 1.00000000e+00
    outer loop
      vertex 7.50762435e-03 0.00000000e+00 7.56663596e-02
      vertex 1.27316411e-03 7.63501178e-19 7.56663596e-02
      vertex 1.48559820e-03 -1.61359705e-03 7.56663596e-02
    endloop
  endfacet
  facet normal 0.00000000e+00 0.00000000e+00 1.00000000e+00
    outer loop
      vertex 7.50762435e-03 0.00000000e+00 7.56663596e-02
      vertex 1.48559820e-03 -1.61359705e-03 7.56663596e-02
      vertex 2.10842341e-03 -3.11723012e-03 7.56663596e-02
    endloop
  endfacet
  facet normal 0.00000000e+00 0.00000000e+00 1.00000000e+00
    outer loop
      vertex 7.50762435e-03 0.00000000e+00 7.56663596e-02
      vertex 2.10842341e-03 -3.11723012e-03 7.56663596e-02
      vertex 3.09919524e-03 -4.40842911e-03 7.56663596e-02
    endloop
  endfacet
  facet normal 0.00000000e+00 0.00000000e+00 1.00000000e+00
    outer loop
      vertex 7.50762435e-03 0.00000000e+00 7.56663596e-02
      vertex 3.09919524e-03 -4.40842911e-03 7.56663596e-02
      vertex 4.39039423e-03 -5.39920095e-03 7.56663596e-02
    endloop
  endfacet
  facet normal 0.00000000e+00 0.00000000e+00 1.00000000e+00
    outer loop
      vertex 7.50762435e-03 0.00000000e+00 7.56663596e-02
      vertex 4.39039423e-03 -5.39920095e-03 7.56663596e-02
      vertex 5.89402731e-03 -6.02202616e-03 7.56663596e-02
    endloop
  endfacet
  facet normal 0.00000000e+00 0.00000000e+00 1.00000000e+00
    outer loop
      vertex 7.50762435e-03 0.00000000e+00 7.56663596e-02
      vertex 5.89402731e-03 -6.02202616e-03 7.56663596e-02
      vertex 7.50762435e-03 -6.23446024e-03 7.56663596e-02
    endloop
  endfacet
  facet normal 0.00000000e+00 0.00000000e+00 1.00000000e+00
    outer loop
      vertex 7.50762435e-03 0.00000000e+00 7.56663596e-02
      vertex 7.50762435e-03 -6.23446024e-03 7.56663596e-02
      vertex 9.12122140e-03 -6.02202616e-03 7.56663596e-02
    endloop
  endfacet
  facet normal 0.00000000e+00 0.00000000e+00 1.00000000e+00
    outer loop
      vertex 7.50762435e-03 0.00000000e+00 7.56663596e-02
      vertex 9.12122140e-03 -6.02202616e-03 7.56663596e-02
      vertex 1.06248545e-02 -5.39920095e-03 7.56663596e-02
    endloop
  endfacet
  facet normal 0.00000000e+00 0.00000000e+00 1.00000000e+00
    outer loop
      vertex 7.50762435e-03 0.00000000e+00 7.56663596e-02
      vertex 1.06248545e-02 -5.39920095e-03 7.56663596e-02
      vertex 1.19160535e-02 -4.40842911e-03 7.56663596e-02
    endloop
  endfacet
  facet normal 0.00000000e+00 0.00000000e+00 1.00000000e+00
    outer loop
      vertex 7.50762435e-03 0.00000000e+00 7.56663596e-02
      vertex 1.19160535e-02 -4.40842911e-03 7.56663596e-02
      vertex 1.29068253e-02 -3.11723012e-03 7.56663596e-02
    endloop
  endfacet
  facet normal 0.00000000e+00 0.00000000e+00 1.00000000e+00
    outer loop
      vertex 7.50762435e-03 0.00000000e+00 7.56663596e-02
      vertex 1.29068253e-02 -3.11723012e-03 7.56663596e-02
      vertex 1.35296505e-02 -1.61359705e-03 7.56663596e-02
    endloop
  endfacet
  facet normal -0.00000000e+00 0.00000000e+00 1.00000000e+00
    outer loop
      vertex 7.50762435e-03 0.00000000e+00 7.56663596e-02
      vertex 1.35296505e-02 -1.61359705e-03 7.56663596e-02
      vertex 1.37420846e-02 0.00000000e+00 7.56663596e-02
    endloop
  endfacet
endsolid inlet
