solid 
 facet normal  3.057635e-01  9.521075e-01  0.000000e+00
   outer loop
     vertex  9.461831e-03  5.845580e-03  0.000000e+00
     vertex  9.619262e-03  5.795022e-03  1.000000e-03
     vertex  9.619262e-03  5.795022e-03  0.000000e+00
   endloop
 endfacet
 facet normal  3.057635e-01  9.521075e-01 -0.000000e+00
   outer loop
     vertex  9.461831e-03  5.845580e-03  0.000000e+00
     vertex  9.461831e-03  5.845580e-03  1.000000e-03
     vertex  9.619262e-03  5.795022e-03  1.000000e-03
   endloop
 endfacet
 facet normal  1.929660e-01  9.812054e-01  0.000000e+00
   outer loop
     vertex -6.845089e-03  8.181708e-03  0.000000e+00
     vertex -6.656283e-03  8.144577e-03  1.000000e-03
     vertex -6.656283e-03  8.144577e-03  0.000000e+00
   endloop
 endfacet
 facet normal  1.929660e-01  9.812054e-01 -0.000000e+00
   outer loop
     vertex -6.845089e-03  8.181708e-03  0.000000e+00
     vertex -6.845089e-03  8.181708e-03  1.000000e-03
     vertex -6.656283e-03  8.144577e-03  1.000000e-03
   endloop
 endfacet
 facet normal  9.652494e-02  9.953306e-01  0.000000e+00
   outer loop
     vertex -4.156980e-04  7.328146e-03  0.000000e+00
     vertex -2.084340e-04  7.308046e-03  1.000000e-03
     vertex -2.084340e-04  7.308046e-03  0.000000e+00
   endloop
 endfacet
 facet normal  9.652494e-02  9.953306e-01 -0.000000e+00
   outer loop
     vertex -4.156980e-04  7.328146e-03  0.000000e+00
     vertex -4.156980e-04  7.328146e-03  1.000000e-03
     vertex -2.084340e-04  7.308046e-03  1.000000e-03
   endloop
 endfacet
 facet normal  2.617481e-01  9.651362e-01  0.000000e+00
   outer loop
     vertex  8.807709e-03  6.034512e-03  0.000000e+00
     vertex  8.974853e-03  5.989182e-03  1.000000e-03
     vertex  8.974853e-03  5.989182e-03  0.000000e+00
   endloop
 endfacet
 facet normal  2.617481e-01  9.651362e-01 -0.000000e+00
   outer loop
     vertex  8.807709e-03  6.034512e-03  0.000000e+00
     vertex  8.807709e-03  6.034512e-03  1.000000e-03
     vertex  8.974853e-03  5.989182e-03  1.000000e-03
   endloop
 endfacet
 facet normal  2.244211e-01  9.744923e-01  0.000000e+00
   outer loop
     vertex -1.009447e-02  8.912551e-03  0.000000e+00
     vertex -9.902239e-03  8.868282e-03  1.000000e-03
     vertex -9.902239e-03  8.868282e-03  0.000000e+00
   endloop
 endfacet
 facet normal  2.244211e-01  9.744923e-01 -0.000000e+00
   outer loop
     vertex -1.009447e-02  8.912551e-03  0.000000e+00
     vertex -1.009447e-02  8.912551e-03  1.000000e-03
     vertex -9.902239e-03  8.868282e-03  1.000000e-03
   endloop
 endfacet
 facet normal  9.662923e-02  9.953204e-01  0.000000e+00
   outer loop
     vertex  4.172610e-04  7.247480e-03  0.000000e+00
     vertex  6.269670e-04  7.227121e-03  1.000000e-03
     vertex  6.269670e-04  7.227121e-03  0.000000e+00
   endloop
 endfacet
 facet normal  9.662923e-02  9.953204e-01 -0.000000e+00
   outer loop
     vertex  4.172610e-04  7.247480e-03  0.000000e+00
     vertex  4.172610e-04  7.247480e-03  1.000000e-03
     vertex  6.269670e-04  7.227121e-03  1.000000e-03
   endloop
 endfacet
 facet normal  2.016658e-01  9.794544e-01  0.000000e+00
   outer loop
     vertex -1.104879e-02  9.120109e-03  0.000000e+00
     vertex -1.085927e-02  9.081088e-03  1.000000e-03
     vertex -1.085927e-02  9.081088e-03  0.000000e+00
   endloop
 endfacet
 facet normal  2.016658e-01  9.794544e-01 -0.000000e+00
   outer loop
     vertex -1.104879e-02  9.120109e-03  0.000000e+00
     vertex -1.104879e-02  9.120109e-03  1.000000e-03
     vertex -1.085927e-02  9.081088e-03  1.000000e-03
   endloop
 endfacet
 facet normal  1.697522e-01  9.854868e-01  0.000000e+00
   outer loop
     vertex -5.902147e-03  8.005403e-03  0.000000e+00
     vertex -5.713621e-03  7.972929e-03  1.000000e-03
     vertex -5.713621e-03  7.972929e-03  0.000000e+00
   endloop
 endfacet
 facet normal  1.697522e-01  9.854868e-01 -0.000000e+00
   outer loop
     vertex -5.902147e-03  8.005403e-03  0.000000e+00
     vertex -5.902147e-03  8.005403e-03  1.000000e-03
     vertex -5.713621e-03  7.972929e-03  1.000000e-03
   endloop
 endfacet
 facet normal  1.325676e-01  9.911740e-01  0.000000e+00
   outer loop
     vertex  4.832069e-03  6.765532e-03  0.000000e+00
     vertex  5.037044e-03  6.738117e-03  1.000000e-03
     vertex  5.037044e-03  6.738117e-03  0.000000e+00
   endloop
 endfacet
 facet normal  1.325676e-01  9.911740e-01 -0.000000e+00
   outer loop
     vertex  4.832069e-03  6.765532e-03  0.000000e+00
     vertex  4.832069e-03  6.765532e-03  1.000000e-03
     vertex  5.037044e-03  6.738117e-03  1.000000e-03
   endloop
 endfacet
 facet normal  2.079723e-01  9.781347e-01  0.000000e+00
   outer loop
     vertex -1.085927e-02  9.081088e-03  0.000000e+00
     vertex -1.066894e-02  9.040620e-03  1.000000e-03
     vertex -1.066894e-02  9.040620e-03  0.000000e+00
   endloop
 endfacet
 facet normal  2.079723e-01  9.781347e-01 -0.000000e+00
   outer loop
     vertex -1.085927e-02  9.081088e-03  0.000000e+00
     vertex -1.085927e-02  9.081088e-03  1.000000e-03
     vertex -1.066894e-02  9.040620e-03  1.000000e-03
   endloop
 endfacet
 facet normal  1.107636e-01  9.938468e-01  0.000000e+00
   outer loop
     vertex -2.838986e-03  7.577150e-03  0.000000e+00
     vertex -2.641874e-03  7.555182e-03  1.000000e-03
     vertex -2.641874e-03  7.555182e-03  0.000000e+00
   endloop
 endfacet
 facet normal  1.107636e-01  9.938468e-01 -0.000000e+00
   outer loop
     vertex -2.838986e-03  7.577150e-03  0.000000e+00
     vertex -2.838986e-03  7.577150e-03  1.000000e-03
     vertex -2.641874e-03  7.555182e-03  1.000000e-03
   endloop
 endfacet
 facet normal  5.326722e-02  9.985803e-01  0.000000e+00
   outer loop
     vertex -1.303630e-02  9.393016e-03  0.000000e+00
     vertex -1.286583e-02  9.383923e-03  1.000000e-03
     vertex -1.286583e-02  9.383923e-03  0.000000e+00
   endloop
 endfacet
 facet normal  5.326722e-02  9.985803e-01 -0.000000e+00
   outer loop
     vertex -1.303630e-02  9.393016e-03  0.000000e+00
     vertex -1.303630e-02  9.393016e-03  1.000000e-03
     vertex -1.286583e-02  9.383923e-03  1.000000e-03
   endloop
 endfacet
 facet normal  4.350254e-01  9.004182e-01  0.000000e+00
   outer loop
     vertex  1.078945e-02  5.334787e-03  0.000000e+00
     vertex  1.092466e-02  5.269463e-03  1.000000e-03
     vertex  1.092466e-02  5.269463e-03  0.000000e+00
   endloop
 endfacet
 facet normal  4.350254e-01  9.004182e-01 -0.000000e+00
   outer loop
     vertex  1.078945e-02  5.334787e-03  0.000000e+00
     vertex  1.078945e-02  5.334787e-03  1.000000e-03
     vertex  1.092466e-02  5.269463e-03  1.000000e-03
   endloop
 endfacet
 facet normal  2.194393e-01  9.756262e-01  0.000000e+00
   outer loop
     vertex -8.174044e-03  8.465821e-03  0.000000e+00
     vertex -7.983253e-03  8.422908e-03  1.000000e-03
     vertex -7.983253e-03  8.422908e-03  0.000000e+00
   endloop
 endfacet
 facet normal  2.194393e-01  9.756262e-01 -0.000000e+00
   outer loop
     vertex -8.174044e-03  8.465821e-03  0.000000e+00
     vertex -8.174044e-03  8.465821e-03  1.000000e-03
     vertex -7.983253e-03  8.422908e-03  1.000000e-03
   endloop
 endfacet
 facet normal  1.349235e-01  9.908560e-01  0.000000e+00
   outer loop
     vertex -4.387364e-03  7.769466e-03  0.000000e+00
     vertex -4.196226e-03  7.743439e-03  1.000000e-03
     vertex -4.196226e-03  7.743439e-03  0.000000e+00
   endloop
 endfacet
 facet normal  1.349235e-01  9.908560e-01 -0.000000e+00
   outer loop
     vertex -4.387364e-03  7.769466e-03  0.000000e+00
     vertex -4.387364e-03  7.769466e-03  1.000000e-03
     vertex -4.196226e-03  7.743439e-03  1.000000e-03
   endloop
 endfacet
 facet normal  1.396163e-01  9.902057e-01  0.000000e+00
   outer loop
     vertex  5.240924e-03  6.710131e-03  0.000000e+00
     vertex  5.443630e-03  6.681550e-03  1.000000e-03
     vertex  5.443630e-03  6.681550e-03  0.000000e+00
   endloop
 endfacet
 facet normal  1.396163e-01  9.902057e-01 -0.000000e+00
   outer loop
     vertex  5.240924e-03  6.710131e-03  0.000000e+00
     vertex  5.240924e-03  6.710131e-03  1.000000e-03
     vertex  5.443630e-03  6.681550e-03  1.000000e-03
   endloop
 endfacet
 facet normal  1.266341e-01  9.919495e-01  0.000000e+00
   outer loop
     vertex -1.234002e-02  9.334889e-03  0.000000e+00
     vertex -1.216044e-02  9.311964e-03  1.000000e-03
     vertex -1.216044e-02  9.311964e-03  0.000000e+00
   endloop
 endfacet
 facet normal  1.266341e-01  9.919495e-01 -0.000000e+00
   outer loop
     vertex -1.234002e-02  9.334889e-03  0.000000e+00
     vertex -1.234002e-02  9.334889e-03  1.000000e-03
     vertex -1.216044e-02  9.311964e-03  1.000000e-03
   endloop
 endfacet
 facet normal  4.028312e-01  9.152743e-01  0.000000e+00
   outer loop
     vertex  1.051173e-02  5.459901e-03  0.000000e+00
     vertex  1.065181e-02  5.398248e-03  1.000000e-03
     vertex  1.065181e-02  5.398248e-03  0.000000e+00
   endloop
 endfacet
 facet normal  4.028312e-01  9.152743e-01 -0.000000e+00
   outer loop
     vertex  1.051173e-02  5.459901e-03  0.000000e+00
     vertex  1.051173e-02  5.459901e-03  1.000000e-03
     vertex  1.065181e-02  5.398248e-03  1.000000e-03
   endloop
 endfacet
 facet normal  2.720023e-01  9.622966e-01  0.000000e+00
   outer loop
     vertex  8.974853e-03  5.989182e-03  0.000000e+00
     vertex  9.139606e-03  5.942613e-03  1.000000e-03
     vertex  9.139606e-03  5.942613e-03  0.000000e+00
   endloop
 endfacet
 facet normal  2.720023e-01  9.622966e-01 -0.000000e+00
   outer loop
     vertex  8.974853e-03  5.989182e-03  0.000000e+00
     vertex  8.974853e-03  5.989182e-03  1.000000e-03
     vertex  9.139606e-03  5.942613e-03  1.000000e-03
   endloop
 endfacet
 facet normal  2.280090e-01  9.736590e-01  0.000000e+00
   outer loop
     vertex -9.709835e-03  8.823528e-03  0.000000e+00
     vertex -9.517357e-03  8.778454e-03  1.000000e-03
     vertex -9.517357e-03  8.778454e-03  0.000000e+00
   endloop
 endfacet
 facet normal  2.280090e-01  9.736590e-01 -0.000000e+00
   outer loop
     vertex -9.709835e-03  8.823528e-03  0.000000e+00
     vertex -9.709835e-03  8.823528e-03  1.000000e-03
     vertex -9.517357e-03  8.778454e-03  1.000000e-03
   endloop
 endfacet
 facet normal  1.604387e-01  9.870458e-01  0.000000e+00
   outer loop
     vertex -5.524983e-03  7.941358e-03  0.000000e+00
     vertex -5.336173e-03  7.910668e-03  1.000000e-03
     vertex -5.336173e-03  7.910668e-03  0.000000e+00
   endloop
 endfacet
 facet normal  1.604387e-01  9.870458e-01 -0.000000e+00
   outer loop
     vertex -5.524983e-03  7.941358e-03  0.000000e+00
     vertex -5.524983e-03  7.941358e-03  1.000000e-03
     vertex -5.336173e-03  7.910668e-03  1.000000e-03
   endloop
 endfacet
 facet normal  1.411273e-01  9.899915e-01  0.000000e+00
   outer loop
     vertex -1.216044e-02  9.311964e-03  0.000000e+00
     vertex -1.197897e-02  9.286095e-03  1.000000e-03
     vertex -1.197897e-02  9.286095e-03  0.000000e+00
   endloop
 endfacet
 facet normal  1.411273e-01  9.899915e-01 -0.000000e+00
   outer loop
     vertex -1.216044e-02  9.311964e-03  0.000000e+00
     vertex -1.216044e-02  9.311964e-03  1.000000e-03
     vertex -1.197897e-02  9.286095e-03  1.000000e-03
   endloop
 endfacet
 facet normal  1.359918e-01  9.907100e-01  0.000000e+00
   outer loop
     vertex  5.037044e-03  6.738117e-03  0.000000e+00
     vertex  5.240924e-03  6.710131e-03  1.000000e-03
     vertex  5.240924e-03  6.710131e-03  0.000000e+00
   endloop
 endfacet
 facet normal  1.359918e-01  9.907100e-01 -0.000000e+00
   outer loop
     vertex  5.037044e-03  6.738117e-03  0.000000e+00
     vertex  5.037044e-03  6.738117e-03  1.000000e-03
     vertex  5.240924e-03  6.710131e-03  1.000000e-03
   endloop
 endfacet
 facet normal  2.265562e-01  9.739981e-01  0.000000e+00
   outer loop
     vertex -9.902239e-03  8.868282e-03  0.000000e+00
     vertex -9.709835e-03  8.823528e-03  1.000000e-03
     vertex -9.709835e-03  8.823528e-03  0.000000e+00
   endloop
 endfacet
 facet normal  2.265562e-01  9.739981e-01 -0.000000e+00
   outer loop
     vertex -9.902239e-03  8.868282e-03  0.000000e+00
     vertex -9.902239e-03  8.868282e-03  1.000000e-03
     vertex -9.709835e-03  8.823528e-03  1.000000e-03
   endloop
 endfacet
 facet normal -2.022225e-02  9.997955e-01  0.000000e+00
   outer loop
     vertex -1.353126e-02  9.395903e-03  0.000000e+00
     vertex -1.336914e-02  9.399182e-03  1.000000e-03
     vertex -1.336914e-02  9.399182e-03  0.000000e+00
   endloop
 endfacet
 facet normal -2.022225e-02  9.997955e-01  0.000000e+00
   outer loop
     vertex -1.353126e-02  9.395903e-03  0.000000e+00
     vertex -1.353126e-02  9.395903e-03  1.000000e-03
     vertex -1.336914e-02  9.399182e-03  1.000000e-03
   endloop
 endfacet
 facet normal  1.434445e-01  9.896584e-01  0.000000e+00
   outer loop
     vertex  5.443630e-03  6.681550e-03  0.000000e+00
     vertex  5.645081e-03  6.652351e-03  1.000000e-03
     vertex  5.645081e-03  6.652351e-03  0.000000e+00
   endloop
 endfacet
 facet normal  1.434445e-01  9.896584e-01 -0.000000e+00
   outer loop
     vertex  5.443630e-03  6.681550e-03  0.000000e+00
     vertex  5.443630e-03  6.681550e-03  1.000000e-03
     vertex  5.645081e-03  6.652351e-03  1.000000e-03
   endloop
 endfacet
 facet normal  1.293351e-01  9.916009e-01  0.000000e+00
   outer loop
     vertex  4.626082e-03  6.792399e-03  0.000000e+00
     vertex  4.832069e-03  6.765532e-03  1.000000e-03
     vertex  4.832069e-03  6.765532e-03  0.000000e+00
   endloop
 endfacet
 facet normal  1.293351e-01  9.916009e-01 -0.000000e+00
   outer loop
     vertex  4.626082e-03  6.792399e-03  0.000000e+00
     vertex  4.626082e-03  6.792399e-03  1.000000e-03
     vertex  4.832069e-03  6.765532e-03  1.000000e-03
   endloop
 endfacet
 facet normal  3.065608e-02  9.995300e-01  0.000000e+00
   outer loop
     vertex -1.320411e-02  9.398163e-03  0.000000e+00
     vertex -1.303630e-02  9.393016e-03  1.000000e-03
     vertex -1.303630e-02  9.393016e-03  0.000000e+00
   endloop
 endfacet
 facet normal  3.065608e-02  9.995300e-01 -0.000000e+00
   outer loop
     vertex -1.320411e-02  9.398163e-03  0.000000e+00
     vertex -1.320411e-02  9.398163e-03  1.000000e-03
     vertex -1.303630e-02  9.393016e-03  1.000000e-03
   endloop
 endfacet
 facet normal  2.285693e-01  9.735277e-01  0.000000e+00
   outer loop
     vertex -9.132526e-03  8.687973e-03  0.000000e+00
     vertex -8.940320e-03  8.642846e-03  1.000000e-03
     vertex -8.940320e-03  8.642846e-03  0.000000e+00
   endloop
 endfacet
 facet normal  2.285693e-01  9.735277e-01 -0.000000e+00
   outer loop
     vertex -9.132526e-03  8.687973e-03  0.000000e+00
     vertex -9.132526e-03  8.687973e-03  1.000000e-03
     vertex -8.940320e-03  8.642846e-03  1.000000e-03
   endloop
 endfacet
 facet normal  1.130901e-01  9.935847e-01  0.000000e+00
   outer loop
     vertex -3.035234e-03  7.599487e-03  0.000000e+00
     vertex -2.838986e-03  7.577150e-03  1.000000e-03
     vertex -2.838986e-03  7.577150e-03  0.000000e+00
   endloop
 endfacet
 facet normal  1.130901e-01  9.935847e-01 -0.000000e+00
   outer loop
     vertex -3.035234e-03  7.599487e-03  0.000000e+00
     vertex -3.035234e-03  7.599487e-03  1.000000e-03
     vertex -2.838986e-03  7.577150e-03  1.000000e-03
   endloop
 endfacet
 facet normal  1.212481e-01  9.926222e-01  0.000000e+00
   outer loop
     vertex -3.619043e-03  7.669093e-03  0.000000e+00
     vertex -3.425231e-03  7.645419e-03  1.000000e-03
     vertex -3.425231e-03  7.645419e-03  0.000000e+00
   endloop
 endfacet
 facet normal  1.212481e-01  9.926222e-01 -0.000000e+00
   outer loop
     vertex -3.619043e-03  7.669093e-03  0.000000e+00
     vertex -3.619043e-03  7.669093e-03  1.000000e-03
     vertex -3.425231e-03  7.645419e-03  1.000000e-03
   endloop
 endfacet
 facet normal  1.838318e-01  9.829577e-01  0.000000e+00
   outer loop
     vertex -6.467636e-03  8.108379e-03  0.000000e+00
     vertex -6.279099e-03  8.073119e-03  1.000000e-03
     vertex -6.279099e-03  8.073119e-03  0.000000e+00
   endloop
 endfacet
 facet normal  1.838318e-01  9.829577e-01 -0.000000e+00
   outer loop
     vertex -6.467636e-03  8.108379e-03  0.000000e+00
     vertex -6.467636e-03  8.108379e-03  1.000000e-03
     vertex -6.279099e-03  8.073119e-03  1.000000e-03
   endloop
 endfacet
 facet normal  4.187138e-01  9.081182e-01  0.000000e+00
   outer loop
     vertex  1.065181e-02  5.398248e-03  0.000000e+00
     vertex  1.078945e-02  5.334787e-03  1.000000e-03
     vertex  1.078945e-02  5.334787e-03  0.000000e+00
   endloop
 endfacet
 facet normal  4.187138e-01  9.081182e-01 -0.000000e+00
   outer loop
     vertex  1.065181e-02  5.398248e-03  0.000000e+00
     vertex  1.065181e-02  5.398248e-03  1.000000e-03
     vertex  1.078945e-02  5.334787e-03  1.000000e-03
   endloop
 endfacet
 facet normal  7.408746e-02  9.972517e-01  0.000000e+00
   outer loop
     vertex -1.286583e-02  9.383923e-03  0.000000e+00
     vertex -1.269287e-02  9.371073e-03  1.000000e-03
     vertex -1.269287e-02  9.371073e-03  0.000000e+00
   endloop
 endfacet
 facet normal  7.408746e-02  9.972517e-01 -0.000000e+00
   outer loop
     vertex -1.286583e-02  9.383923e-03  0.000000e+00
     vertex -1.286583e-02  9.383923e-03  1.000000e-03
     vertex -1.269287e-02  9.371073e-03  1.000000e-03
   endloop
 endfacet
 facet normal  1.650671e-01  9.862823e-01  0.000000e+00
   outer loop
     vertex -5.713621e-03  7.972929e-03  0.000000e+00
     vertex -5.524983e-03  7.941358e-03  1.000000e-03
     vertex -5.524983e-03  7.941358e-03  0.000000e+00
   endloop
 endfacet
 facet normal  1.650671e-01  9.862823e-01 -0.000000e+00
   outer loop
     vertex -5.713621e-03  7.972929e-03  0.000000e+00
     vertex -5.713621e-03  7.972929e-03  1.000000e-03
     vertex -5.524983e-03  7.941358e-03  1.000000e-03
   endloop
 endfacet
 facet normal  2.178584e-01  9.759804e-01  0.000000e+00
   outer loop
     vertex -1.047794e-02  8.998909e-03  0.000000e+00
     vertex -1.028641e-02  8.956155e-03  1.000000e-03
     vertex -1.028641e-02  8.956155e-03  0.000000e+00
   endloop
 endfacet
 facet normal  2.178584e-01  9.759804e-01 -0.000000e+00
   outer loop
     vertex -1.047794e-02  8.998909e-03  0.000000e+00
     vertex -1.047794e-02  8.998909e-03  1.000000e-03
     vertex -1.028641e-02  8.956155e-03  1.000000e-03
   endloop
 endfacet
 facet normal  2.939972e-01  9.558063e-01  0.000000e+00
   outer loop
     vertex  9.301940e-03  5.894761e-03  0.000000e+00
     vertex  9.461831e-03  5.845580e-03  1.000000e-03
     vertex  9.461831e-03  5.845580e-03  0.000000e+00
   endloop
 endfacet
 facet normal  2.939972e-01  9.558063e-01 -0.000000e+00
   outer loop
     vertex  9.301940e-03  5.894761e-03  0.000000e+00
     vertex  9.301940e-03  5.894761e-03  1.000000e-03
     vertex  9.461831e-03  5.845580e-03  1.000000e-03
   endloop
 endfacet
 facet normal  1.973628e-01  9.803305e-01  0.000000e+00
   outer loop
     vertex -7.034094e-03  8.219759e-03  0.000000e+00
     vertex -6.845089e-03  8.181708e-03  1.000000e-03
     vertex -6.845089e-03  8.181708e-03  0.000000e+00
   endloop
 endfacet
 facet normal  1.973628e-01  9.803305e-01 -0.000000e+00
   outer loop
     vertex -7.034094e-03  8.219759e-03  0.000000e+00
     vertex -7.034094e-03  8.219759e-03  1.000000e-03
     vertex -6.845089e-03  8.181708e-03  1.000000e-03
   endloop
 endfacet
 facet normal  1.181624e-01  9.929943e-01  0.000000e+00
   outer loop
     vertex  3.793646e-03  6.894829e-03  0.000000e+00
     vertex  4.002863e-03  6.869933e-03  1.000000e-03
     vertex  4.002863e-03  6.869933e-03  0.000000e+00
   endloop
 endfacet
 facet normal  1.181624e-01  9.929943e-01 -0.000000e+00
   outer loop
     vertex  3.793646e-03  6.894829e-03  0.000000e+00
     vertex  3.793646e-03  6.894829e-03  1.000000e-03
     vertex  4.002863e-03  6.869933e-03  1.000000e-03
   endloop
 endfacet
 facet normal  1.610459e-01  9.869469e-01  0.000000e+00
   outer loop
     vertex  6.241122e-03  6.560793e-03  0.000000e+00
     vertex  6.436776e-03  6.528867e-03  1.000000e-03
     vertex  6.436776e-03  6.528867e-03  0.000000e+00
   endloop
 endfacet
 facet normal  1.610459e-01  9.869469e-01 -0.000000e+00
   outer loop
     vertex  6.241122e-03  6.560793e-03  0.000000e+00
     vertex  6.241122e-03  6.560793e-03  1.000000e-03
     vertex  6.436776e-03  6.528867e-03  1.000000e-03
   endloop
 endfacet
 facet normal  9.730936e-02  9.952542e-01  0.000000e+00
   outer loop
     vertex -8.280210e-04  7.368363e-03  0.000000e+00
     vertex -6.222390e-04  7.348243e-03  1.000000e-03
     vertex -6.222390e-04  7.348243e-03  0.000000e+00
   endloop
 endfacet
 facet normal  9.730936e-02  9.952542e-01 -0.000000e+00
   outer loop
     vertex -8.280210e-04  7.368363e-03  0.000000e+00
     vertex -8.280210e-04  7.368363e-03  1.000000e-03
     vertex -6.222390e-04  7.348243e-03  1.000000e-03
   endloop
 endfacet
 facet normal  1.019304e-01  9.947915e-01  0.000000e+00
   outer loop
     vertex -1.844528e-03  7.470275e-03  0.000000e+00
     vertex -1.642955e-03  7.449621e-03  1.000000e-03
     vertex -1.642955e-03  7.449621e-03  0.000000e+00
   endloop
 endfacet
 facet normal  1.019304e-01  9.947915e-01 -0.000000e+00
   outer loop
     vertex -1.844528e-03  7.470275e-03  0.000000e+00
     vertex -1.844528e-03  7.470275e-03  1.000000e-03
     vertex -1.642955e-03  7.449621e-03  1.000000e-03
   endloop
 endfacet
 facet normal  2.024653e-01  9.792894e-01  0.000000e+00
   outer loop
     vertex  7.573912e-03  6.320580e-03  0.000000e+00
     vertex  7.756686e-03  6.282792e-03  1.000000e-03
     vertex  7.756686e-03  6.282792e-03  0.000000e+00
   endloop
 endfacet
 facet normal  2.024653e-01  9.792894e-01 -0.000000e+00
   outer loop
     vertex  7.573912e-03  6.320580e-03  0.000000e+00
     vertex  7.573912e-03  6.320580e-03  1.000000e-03
     vertex  7.756686e-03  6.282792e-03  1.000000e-03
   endloop
 endfacet
 facet normal  1.828387e-01  9.831429e-01  0.000000e+00
   outer loop
     vertex  7.013638e-03  6.428486e-03  0.000000e+00
     vertex  7.202326e-03  6.393395e-03  1.000000e-03
     vertex  7.202326e-03  6.393395e-03  0.000000e+00
   endloop
 endfacet
 facet normal  1.828387e-01  9.831429e-01 -0.000000e+00
   outer loop
     vertex  7.013638e-03  6.428486e-03  0.000000e+00
     vertex  7.013638e-03  6.428486e-03  1.000000e-03
     vertex  7.202326e-03  6.393395e-03  1.000000e-03
   endloop
 endfacet
 facet normal  2.131146e-01  9.770272e-01  0.000000e+00
   outer loop
     vertex -7.792795e-03  8.380686e-03  0.000000e+00
     vertex -7.602666e-03  8.339214e-03  1.000000e-03
     vertex -7.602666e-03  8.339214e-03  0.000000e+00
   endloop
 endfacet
 facet normal  2.131146e-01  9.770272e-01 -0.000000e+00
   outer loop
     vertex -7.792795e-03  8.380686e-03  0.000000e+00
     vertex -7.792795e-03  8.380686e-03  1.000000e-03
     vertex -7.602666e-03  8.339214e-03  1.000000e-03
   endloop
 endfacet
 facet normal  1.474967e-01  9.890626e-01  0.000000e+00
   outer loop
     vertex  5.645081e-03  6.652351e-03  0.000000e+00
     vertex  5.845198e-03  6.622508e-03  1.000000e-03
     vertex  5.845198e-03  6.622508e-03  0.000000e+00
   endloop
 endfacet
 facet normal  1.474967e-01  9.890626e-01 -0.000000e+00
   outer loop
     vertex  5.645081e-03  6.652351e-03  0.000000e+00
     vertex  5.645081e-03  6.652351e-03  1.000000e-03
     vertex  5.845198e-03  6.622508e-03  1.000000e-03
   endloop
 endfacet
 facet normal  2.337972e-01  9.722854e-01  0.000000e+00
   outer loop
     vertex  8.292268e-03  6.163493e-03  0.000000e+00
     vertex  8.466379e-03  6.121626e-03  1.000000e-03
     vertex  8.466379e-03  6.121626e-03  0.000000e+00
   endloop
 endfacet
 facet normal  2.337972e-01  9.722854e-01 -0.000000e+00
   outer loop
     vertex  8.292268e-03  6.163493e-03  0.000000e+00
     vertex  8.292268e-03  6.163493e-03  1.000000e-03
     vertex  8.466379e-03  6.121626e-03  1.000000e-03
   endloop
 endfacet
 facet normal  2.220936e-01  9.750253e-01  0.000000e+00
   outer loop
     vertex -8.365165e-03  8.509355e-03  0.000000e+00
     vertex -8.174044e-03  8.465821e-03  1.000000e-03
     vertex -8.174044e-03  8.465821e-03  0.000000e+00
   endloop
 endfacet
 facet normal  2.220936e-01  9.750253e-01 -0.000000e+00
   outer loop
     vertex -8.365165e-03  8.509355e-03  0.000000e+00
     vertex -8.365165e-03  8.509355e-03  1.000000e-03
     vertex -8.174044e-03  8.465821e-03  1.000000e-03
   endloop
 endfacet
 facet normal  1.066897e-01  9.942924e-01  0.000000e+00
   outer loop
     vertex -2.443880e-03  7.533545e-03  0.000000e+00
     vertex -2.244993e-03  7.512204e-03  1.000000e-03
     vertex -2.244993e-03  7.512204e-03  0.000000e+00
   endloop
 endfacet
 facet normal  1.066897e-01  9.942924e-01 -0.000000e+00
   outer loop
     vertex -2.443880e-03  7.533545e-03  0.000000e+00
     vertex -2.443880e-03  7.533545e-03  1.000000e-03
     vertex -2.244993e-03  7.512204e-03  1.000000e-03
   endloop
 endfacet
 facet normal  1.114561e-01  9.937694e-01  0.000000e+00
   outer loop
     vertex  3.162705e-03  6.966962e-03  0.000000e+00
     vertex  3.373485e-03  6.943322e-03  1.000000e-03
     vertex  3.373485e-03  6.943322e-03  0.000000e+00
   endloop
 endfacet
 facet normal  1.114561e-01  9.937694e-01 -0.000000e+00
   outer loop
     vertex  3.162705e-03  6.966962e-03  0.000000e+00
     vertex  3.162705e-03  6.966962e-03  1.000000e-03
     vertex  3.373485e-03  6.943322e-03  1.000000e-03
   endloop
 endfacet
 facet normal  2.095192e-01  9.778045e-01  0.000000e+00
   outer loop
     vertex -7.602666e-03  8.339214e-03  0.000000e+00
     vertex -7.412854e-03  8.298542e-03  1.000000e-03
     vertex -7.412854e-03  8.298542e-03  0.000000e+00
   endloop
 endfacet
 facet normal  2.095192e-01  9.778045e-01 -0.000000e+00
   outer loop
     vertex -7.602666e-03  8.339214e-03  0.000000e+00
     vertex -7.602666e-03  8.339214e-03  1.000000e-03
     vertex -7.412854e-03  8.298542e-03  1.000000e-03
   endloop
 endfacet
 facet normal  1.156086e-01  9.932948e-01  0.000000e+00
   outer loop
     vertex -3.230639e-03  7.622230e-03  0.000000e+00
     vertex -3.035234e-03  7.599487e-03  1.000000e-03
     vertex -3.035234e-03  7.599487e-03  0.000000e+00
   endloop
 endfacet
 facet normal  1.156086e-01  9.932948e-01 -0.000000e+00
   outer loop
     vertex -3.230639e-03  7.622230e-03  0.000000e+00
     vertex -3.230639e-03  7.622230e-03  1.000000e-03
     vertex -3.035234e-03  7.599487e-03  1.000000e-03
   endloop
 endfacet
 facet normal  3.180553e-01  9.480722e-01  0.000000e+00
   outer loop
     vertex  9.619262e-03  5.795022e-03  0.000000e+00
     vertex  9.774218e-03  5.743038e-03  1.000000e-03
     vertex  9.774218e-03  5.743038e-03  0.000000e+00
   endloop
 endfacet
 facet normal  3.180553e-01  9.480722e-01 -0.000000e+00
   outer loop
     vertex  9.619262e-03  5.795022e-03  0.000000e+00
     vertex  9.619262e-03  5.795022e-03  1.000000e-03
     vertex  9.774218e-03  5.743038e-03  1.000000e-03
   endloop
 endfacet
 facet normal  1.660678e-01  9.861143e-01  0.000000e+00
   outer loop
     vertex  6.436776e-03  6.528867e-03  0.000000e+00
     vertex  6.630795e-03  6.496193e-03  1.000000e-03
     vertex  6.630795e-03  6.496193e-03  0.000000e+00
   endloop
 endfacet
 facet normal  1.660678e-01  9.861143e-01 -0.000000e+00
   outer loop
     vertex  6.436776e-03  6.528867e-03  0.000000e+00
     vertex  6.436776e-03  6.528867e-03  1.000000e-03
     vertex  6.630795e-03  6.496193e-03  1.000000e-03
   endloop
 endfacet
 facet normal  4.862430e-01  8.738236e-01  0.000000e+00
   outer loop
     vertex  1.118788e-02  5.132993e-03  0.000000e+00
     vertex  1.131594e-02  5.061734e-03  1.000000e-03
     vertex  1.131594e-02  5.061734e-03  0.000000e+00
   endloop
 endfacet
 facet normal  4.862430e-01  8.738236e-01 -0.000000e+00
   outer loop
     vertex  1.118788e-02  5.132993e-03  0.000000e+00
     vertex  1.118788e-02  5.132993e-03  1.000000e-03
     vertex  1.131594e-02  5.061734e-03  1.000000e-03
   endloop
 endfacet
 facet normal  3.308767e-01  9.436740e-01  0.000000e+00
   outer loop
     vertex  9.774218e-03  5.743038e-03  0.000000e+00
     vertex  9.926691e-03  5.689577e-03  1.000000e-03
     vertex  9.926691e-03  5.689577e-03  0.000000e+00
   endloop
 endfacet
 facet normal  3.308767e-01  9.436740e-01 -0.000000e+00
   outer loop
     vertex  9.774218e-03  5.743038e-03  0.000000e+00
     vertex  9.774218e-03  5.743038e-03  1.000000e-03
     vertex  9.926691e-03  5.689577e-03  1.000000e-03
   endloop
 endfacet
 facet normal  1.262819e-01  9.919944e-01  0.000000e+00
   outer loop
     vertex  4.419163e-03  6.818740e-03  0.000000e+00
     vertex  4.626082e-03  6.792399e-03  1.000000e-03
     vertex  4.626082e-03  6.792399e-03  0.000000e+00
   endloop
 endfacet
 facet normal  1.262819e-01  9.919944e-01 -0.000000e+00
   outer loop
     vertex  4.419163e-03  6.818740e-03  0.000000e+00
     vertex  4.419163e-03  6.818740e-03  1.000000e-03
     vertex  4.626082e-03  6.792399e-03  1.000000e-03
   endloop
 endfacet
 facet normal  3.725136e-01  9.280267e-01  0.000000e+00
   outer loop
     vertex  1.022417e-02  5.578015e-03  0.000000e+00
     vertex  1.036919e-02  5.519805e-03  1.000000e-03
     vertex  1.036919e-02  5.519805e-03  0.000000e+00
   endloop
 endfacet
 facet normal  3.725136e-01  9.280267e-01 -0.000000e+00
   outer loop
     vertex  1.022417e-02  5.578015e-03  0.000000e+00
     vertex  1.022417e-02  5.578015e-03  1.000000e-03
     vertex  1.036919e-02  5.519805e-03  1.000000e-03
   endloop
 endfacet
 facet normal  1.562817e-01  9.877125e-01  0.000000e+00
   outer loop
     vertex  6.043904e-03  6.591998e-03  0.000000e+00
     vertex  6.241122e-03  6.560793e-03  1.000000e-03
     vertex  6.241122e-03  6.560793e-03  0.000000e+00
   endloop
 endfacet
 facet normal  1.562817e-01  9.877125e-01 -0.000000e+00
   outer loop
     vertex  6.043904e-03  6.591998e-03  0.000000e+00
     vertex  6.043904e-03  6.591998e-03  1.000000e-03
     vertex  6.241122e-03  6.560793e-03  1.000000e-03
   endloop
 endfacet
 facet normal  9.639886e-02  9.953428e-01  0.000000e+00
   outer loop
     vertex  2.080920e-04  7.267738e-03  0.000000e+00
     vertex  4.172610e-04  7.247480e-03  1.000000e-03
     vertex  4.172610e-04  7.247480e-03  0.000000e+00
   endloop
 endfacet
 facet normal  9.639886e-02  9.953428e-01 -0.000000e+00
   outer loop
     vertex  2.080920e-04  7.267738e-03  0.000000e+00
     vertex  2.080920e-04  7.267738e-03  1.000000e-03
     vertex  4.172610e-04  7.247480e-03  1.000000e-03
   endloop
 endfacet
 facet normal  1.007294e-01  9.949139e-01  0.000000e+00
   outer loop
     vertex  1.681528e-03  7.123030e-03  0.000000e+00
     vertex  1.893204e-03  7.101599e-03  1.000000e-03
     vertex  1.893204e-03  7.101599e-03  0.000000e+00
   endloop
 endfacet
 facet normal  1.007294e-01  9.949139e-01 -0.000000e+00
   outer loop
     vertex  1.681528e-03  7.123030e-03  0.000000e+00
     vertex  1.681528e-03  7.123030e-03  1.000000e-03
     vertex  1.893204e-03  7.101599e-03  1.000000e-03
   endloop
 endfacet
 facet normal  1.890449e-01  9.819684e-01  0.000000e+00
   outer loop
     vertex  7.202326e-03  6.393395e-03  0.000000e+00
     vertex  7.389105e-03  6.357437e-03  1.000000e-03
     vertex  7.389105e-03  6.357437e-03  0.000000e+00
   endloop
 endfacet
 facet normal  1.890449e-01  9.819684e-01 -0.000000e+00
   outer loop
     vertex  7.202326e-03  6.393395e-03  0.000000e+00
     vertex  7.202326e-03  6.393395e-03  1.000000e-03
     vertex  7.389105e-03  6.357437e-03  1.000000e-03
   endloop
 endfacet
 facet normal  1.517649e-01  9.884166e-01  0.000000e+00
   outer loop
     vertex  5.845198e-03  6.622508e-03  0.000000e+00
     vertex  6.043904e-03  6.591998e-03  1.000000e-03
     vertex  6.043904e-03  6.591998e-03  0.000000e+00
   endloop
 endfacet
 facet normal  1.517649e-01  9.884166e-01 -0.000000e+00
   outer loop
     vertex  5.845198e-03  6.622508e-03  0.000000e+00
     vertex  5.845198e-03  6.622508e-03  1.000000e-03
     vertex  6.043904e-03  6.591998e-03  1.000000e-03
   endloop
 endfacet
 facet normal -4.859880e-02  9.988184e-01  0.000000e+00
   outer loop
     vertex -1.369033e-02  9.388163e-03  0.000000e+00
     vertex -1.353126e-02  9.395903e-03  1.000000e-03
     vertex -1.353126e-02  9.395903e-03  0.000000e+00
   endloop
 endfacet
 facet normal -4.859880e-02  9.988184e-01  0.000000e+00
   outer loop
     vertex -1.369033e-02  9.388163e-03  0.000000e+00
     vertex -1.369033e-02  9.388163e-03  1.000000e-03
     vertex -1.353126e-02  9.395903e-03  1.000000e-03
   endloop
 endfacet
 facet normal  2.426592e-01  9.701116e-01  0.000000e+00
   outer loop
     vertex  8.466379e-03  6.121626e-03  0.000000e+00
     vertex  8.638206e-03  6.078646e-03  1.000000e-03
     vertex  8.638206e-03  6.078646e-03  0.000000e+00
   endloop
 endfacet
 facet normal  2.426592e-01  9.701116e-01 -0.000000e+00
   outer loop
     vertex  8.466379e-03  6.121626e-03  0.000000e+00
     vertex  8.466379e-03  6.121626e-03  1.000000e-03
     vertex  8.638206e-03  6.078646e-03  1.000000e-03
   endloop
 endfacet
 facet normal  1.049271e-01  9.944799e-01  0.000000e+00
   outer loop
     vertex -2.244993e-03  7.512204e-03  0.000000e+00
     vertex -2.045210e-03  7.491125e-03  1.000000e-03
     vertex -2.045210e-03  7.491125e-03  0.000000e+00
   endloop
 endfacet
 facet normal  1.049271e-01  9.944799e-01 -0.000000e+00
   outer loop
     vertex -2.244993e-03  7.512204e-03  0.000000e+00
     vertex -2.244993e-03  7.512204e-03  1.000000e-03
     vertex -2.045210e-03  7.491125e-03  1.000000e-03
   endloop
 endfacet
 facet normal  9.809551e-02  9.951770e-01  0.000000e+00
   outer loop
     vertex  1.047767e-03  7.186011e-03  0.000000e+00
     vertex  1.258742e-03  7.165215e-03  1.000000e-03
     vertex  1.258742e-03  7.165215e-03  0.000000e+00
   endloop
 endfacet
 facet normal  9.809551e-02  9.951770e-01 -0.000000e+00
   outer loop
     vertex  1.047767e-03  7.186011e-03  0.000000e+00
     vertex  1.047767e-03  7.186011e-03  1.000000e-03
     vertex  1.258742e-03  7.165215e-03  1.000000e-03
   endloop
 endfacet
 facet normal  2.173397e-01  9.760960e-01  0.000000e+00
   outer loop
     vertex  7.937373e-03  6.244039e-03  0.000000e+00
     vertex  8.115917e-03  6.204284e-03  1.000000e-03
     vertex  8.115917e-03  6.204284e-03  0.000000e+00
   endloop
 endfacet
 facet normal  2.173397e-01  9.760960e-01 -0.000000e+00
   outer loop
     vertex  7.937373e-03  6.244039e-03  0.000000e+00
     vertex  7.937373e-03  6.244039e-03  1.000000e-03
     vertex  8.115917e-03  6.204284e-03  1.000000e-03
   endloop
 endfacet
 facet normal  9.791736e-02  9.951945e-01  0.000000e+00
   outer loop
     vertex -1.033011e-03  7.388532e-03  0.000000e+00
     vertex -8.280210e-04  7.368363e-03  1.000000e-03
     vertex -8.280210e-04  7.368363e-03  0.000000e+00
   endloop
 endfacet
 facet normal  9.791736e-02  9.951945e-01 -0.000000e+00
   outer loop
     vertex -1.033011e-03  7.388532e-03  0.000000e+00
     vertex -1.033011e-03  7.388532e-03  1.000000e-03
     vertex -8.280210e-04  7.368363e-03  1.000000e-03
   endloop
 endfacet
 facet normal  4.517491e-01  8.921450e-01  0.000000e+00
   outer loop
     vertex  1.092466e-02  5.269463e-03  0.000000e+00
     vertex  1.105746e-02  5.202217e-03  1.000000e-03
     vertex  1.105746e-02  5.202217e-03  0.000000e+00
   endloop
 endfacet
 facet normal  4.517491e-01  8.921450e-01 -0.000000e+00
   outer loop
     vertex  1.092466e-02  5.269463e-03  0.000000e+00
     vertex  1.092466e-02  5.269463e-03  1.000000e-03
     vertex  1.105746e-02  5.202217e-03  1.000000e-03
   endloop
 endfacet
 facet normal  9.960450e-02  9.950271e-01  0.000000e+00
   outer loop
     vertex -1.440500e-03  7.429133e-03  0.000000e+00
     vertex -1.237178e-03  7.408780e-03  1.000000e-03
     vertex -1.237178e-03  7.408780e-03  0.000000e+00
   endloop
 endfacet
 facet normal  9.960450e-02  9.950271e-01 -0.000000e+00
   outer loop
     vertex -1.440500e-03  7.429133e-03  0.000000e+00
     vertex -1.440500e-03  7.429133e-03  1.000000e-03
     vertex -1.237178e-03  7.408780e-03  1.000000e-03
   endloop
 endfacet
 facet normal  3.442243e-01  9.388874e-01  0.000000e+00
   outer loop
     vertex  9.926691e-03  5.689577e-03  0.000000e+00
     vertex  1.007668e-02  5.634588e-03  1.000000e-03
     vertex  1.007668e-02  5.634588e-03  0.000000e+00
   endloop
 endfacet
 facet normal  3.442243e-01  9.388874e-01 -0.000000e+00
   outer loop
     vertex  9.926691e-03  5.689577e-03  0.000000e+00
     vertex  9.926691e-03  5.689577e-03  1.000000e-03
     vertex  1.007668e-02  5.634588e-03  1.000000e-03
   endloop
 endfacet
 facet normal  1.006836e-01  9.949185e-01  0.000000e+00
   outer loop
     vertex -1.642955e-03  7.449621e-03  0.000000e+00
     vertex -1.440500e-03  7.429133e-03  1.000000e-03
     vertex -1.440500e-03  7.429133e-03  0.000000e+00
   endloop
 endfacet
 facet normal  1.006836e-01  9.949185e-01 -0.000000e+00
   outer loop
     vertex -1.642955e-03  7.449621e-03  0.000000e+00
     vertex -1.642955e-03  7.449621e-03  1.000000e-03
     vertex -1.440500e-03  7.429133e-03  1.000000e-03
   endloop
 endfacet
 facet normal  1.884444e-01  9.820839e-01  0.000000e+00
   outer loop
     vertex -6.656283e-03  8.144577e-03  0.000000e+00
     vertex -6.467636e-03  8.108379e-03  1.000000e-03
     vertex -6.467636e-03  8.108379e-03  0.000000e+00
   endloop
 endfacet
 facet normal  1.884444e-01  9.820839e-01 -0.000000e+00
   outer loop
     vertex -6.656283e-03  8.144577e-03  0.000000e+00
     vertex -6.656283e-03  8.144577e-03  1.000000e-03
     vertex -6.467636e-03  8.108379e-03  1.000000e-03
   endloop
 endfacet
 facet normal  1.766260e-01  9.842780e-01  0.000000e+00
   outer loop
     vertex -1.161100e-02  9.226382e-03  0.000000e+00
     vertex -1.142480e-02  9.192970e-03  1.000000e-03
     vertex -1.142480e-02  9.192970e-03  0.000000e+00
   endloop
 endfacet
 facet normal  1.766260e-01  9.842780e-01 -0.000000e+00
   outer loop
     vertex -1.161100e-02  9.226382e-03  0.000000e+00
     vertex -1.161100e-02  9.226382e-03  1.000000e-03
     vertex -1.142480e-02  9.192970e-03  1.000000e-03
   endloop
 endfacet
 facet normal  1.470749e-01  9.891254e-01  0.000000e+00
   outer loop
     vertex -4.957786e-03  7.851832e-03  0.000000e+00
     vertex -4.768085e-03  7.823625e-03  1.000000e-03
     vertex -4.768085e-03  7.823625e-03  0.000000e+00
   endloop
 endfacet
 facet normal  1.470749e-01  9.891254e-01 -0.000000e+00
   outer loop
     vertex -4.957786e-03  7.851832e-03  0.000000e+00
     vertex -4.957786e-03  7.851832e-03  1.000000e-03
     vertex -4.768085e-03  7.823625e-03  1.000000e-03
   endloop
 endfacet
 facet normal  2.215306e-01  9.751534e-01  0.000000e+00
   outer loop
     vertex -1.028641e-02  8.956155e-03  0.000000e+00
     vertex -1.009447e-02  8.912551e-03  1.000000e-03
     vertex -1.009447e-02  8.912551e-03  0.000000e+00
   endloop
 endfacet
 facet normal  2.215306e-01  9.751534e-01 -0.000000e+00
   outer loop
     vertex -1.028641e-02  8.956155e-03  0.000000e+00
     vertex -1.028641e-02  8.956155e-03  1.000000e-03
     vertex -1.009447e-02  8.912551e-03  1.000000e-03
   endloop
 endfacet
 facet normal  2.276449e-01  9.737442e-01  0.000000e+00
   outer loop
     vertex -8.940320e-03  8.642846e-03  0.000000e+00
     vertex -8.748330e-03  8.597962e-03  1.000000e-03
     vertex -8.748330e-03  8.597962e-03  0.000000e+00
   endloop
 endfacet
 facet normal  2.276449e-01  9.737442e-01 -0.000000e+00
   outer loop
     vertex -8.940320e-03  8.642846e-03  0.000000e+00
     vertex -8.940320e-03  8.642846e-03  1.000000e-03
     vertex -8.748330e-03  8.597962e-03  1.000000e-03
   endloop
 endfacet
 facet normal  1.045210e-01  9.945227e-01  0.000000e+00
   outer loop
     vertex  2.316774e-03  7.057955e-03  0.000000e+00
     vertex  2.528522e-03  7.035701e-03  1.000000e-03
     vertex  2.528522e-03  7.035701e-03  0.000000e+00
   endloop
 endfacet
 facet normal  1.045210e-01  9.945227e-01 -0.000000e+00
   outer loop
     vertex  2.316774e-03  7.057955e-03  0.000000e+00
     vertex  2.316774e-03  7.057955e-03  1.000000e-03
     vertex  2.528522e-03  7.035701e-03  1.000000e-03
   endloop
 endfacet
 facet normal  1.791597e-01  9.838200e-01  0.000000e+00
   outer loop
     vertex -6.279099e-03  8.073119e-03  0.000000e+00
     vertex -6.090621e-03  8.038796e-03  1.000000e-03
     vertex -6.090621e-03  8.038796e-03  0.000000e+00
   endloop
 endfacet
 facet normal  1.791597e-01  9.838200e-01 -0.000000e+00
   outer loop
     vertex -6.279099e-03  8.073119e-03  0.000000e+00
     vertex -6.279099e-03  8.073119e-03  1.000000e-03
     vertex -6.090621e-03  8.038796e-03  1.000000e-03
   endloop
 endfacet
 facet normal  1.860513e-01  9.825400e-01  0.000000e+00
   outer loop
     vertex -1.142480e-02  9.192970e-03  0.000000e+00
     vertex -1.123735e-02  9.157474e-03  1.000000e-03
     vertex -1.123735e-02  9.157474e-03  0.000000e+00
   endloop
 endfacet
 facet normal  1.860513e-01  9.825400e-01 -0.000000e+00
   outer loop
     vertex -1.142480e-02  9.192970e-03  0.000000e+00
     vertex -1.142480e-02  9.192970e-03  1.000000e-03
     vertex -1.123735e-02  9.157474e-03  1.000000e-03
   endloop
 endfacet
 facet normal  9.698201e-02  9.952861e-01  0.000000e+00
   outer loop
     vertex  6.269670e-04  7.227121e-03  0.000000e+00
     vertex  8.371550e-04  7.206640e-03  1.000000e-03
     vertex  8.371550e-04  7.206640e-03  0.000000e+00
   endloop
 endfacet
 facet normal  9.698201e-02  9.952861e-01 -0.000000e+00
   outer loop
     vertex  6.269670e-04  7.227121e-03  0.000000e+00
     vertex  6.269670e-04  7.227121e-03  1.000000e-03
     vertex  8.371550e-04  7.206640e-03  1.000000e-03
   endloop
 endfacet
 facet normal  9.320261e-02  9.956472e-01  0.000000e+00
   outer loop
     vertex -1.269287e-02  9.371073e-03  0.000000e+00
     vertex -1.251754e-02  9.354661e-03  1.000000e-03
     vertex -1.251754e-02  9.354661e-03  0.000000e+00
   endloop
 endfacet
 facet normal  9.320261e-02  9.956472e-01 -0.000000e+00
   outer loop
     vertex -1.269287e-02  9.371073e-03  0.000000e+00
     vertex -1.269287e-02  9.371073e-03  1.000000e-03
     vertex -1.251754e-02  9.354661e-03  1.000000e-03
   endloop
 endfacet
 facet normal  2.056698e-01  9.786214e-01  0.000000e+00
   outer loop
     vertex -7.412854e-03  8.298542e-03  0.000000e+00
     vertex -7.223339e-03  8.258713e-03  1.000000e-03
     vertex -7.223339e-03  8.258713e-03  0.000000e+00
   endloop
 endfacet
 facet normal  2.056698e-01  9.786214e-01 -0.000000e+00
   outer loop
     vertex -7.412854e-03  8.298542e-03  0.000000e+00
     vertex -7.412854e-03  8.298542e-03  1.000000e-03
     vertex -7.223339e-03  8.258713e-03  1.000000e-03
   endloop
 endfacet
 facet normal  1.428650e-01  9.897422e-01  0.000000e+00
   outer loop
     vertex -4.768085e-03  7.823625e-03  0.000000e+00
     vertex -4.577965e-03  7.796182e-03  1.000000e-03
     vertex -4.577965e-03  7.796182e-03  0.000000e+00
   endloop
 endfacet
 facet normal  1.428650e-01  9.897422e-01 -0.000000e+00
   outer loop
     vertex -4.768085e-03  7.823625e-03  0.000000e+00
     vertex -4.768085e-03  7.823625e-03  1.000000e-03
     vertex -4.577965e-03  7.796182e-03  1.000000e-03
   endloop
 endfacet
 facet normal  5.039214e-01  8.637495e-01  0.000000e+00
   outer loop
     vertex  1.131594e-02  5.061734e-03  0.000000e+00
     vertex  1.144166e-02  4.988384e-03  1.000000e-03
     vertex  1.144166e-02  4.988384e-03  0.000000e+00
   endloop
 endfacet
 facet normal  5.039214e-01  8.637495e-01 -0.000000e+00
   outer loop
     vertex  1.131594e-02  5.061734e-03  0.000000e+00
     vertex  1.131594e-02  5.061734e-03  1.000000e-03
     vertex  1.144166e-02  4.988384e-03  1.000000e-03
   endloop
 endfacet
 facet normal  1.234098e-01  9.923558e-01  0.000000e+00
   outer loop
     vertex  4.211396e-03  6.844578e-03  0.000000e+00
     vertex  4.419163e-03  6.818740e-03  1.000000e-03
     vertex  4.419163e-03  6.818740e-03  0.000000e+00
   endloop
 endfacet
 facet normal  1.234098e-01  9.923558e-01 -0.000000e+00
   outer loop
     vertex  4.211396e-03  6.844578e-03  0.000000e+00
     vertex  4.211396e-03  6.844578e-03  1.000000e-03
     vertex  4.419163e-03  6.818740e-03  1.000000e-03
   endloop
 endfacet
 facet normal  2.287881e-01  9.734762e-01  0.000000e+00
   outer loop
     vertex -9.517357e-03  8.778454e-03  0.000000e+00
     vertex -9.324894e-03  8.733221e-03  1.000000e-03
     vertex -9.324894e-03  8.733221e-03  0.000000e+00
   endloop
 endfacet
 facet normal  2.287881e-01  9.734762e-01 -0.000000e+00
   outer loop
     vertex -9.517357e-03  8.778454e-03  0.000000e+00
     vertex -9.517357e-03  8.778454e-03  1.000000e-03
     vertex -9.324894e-03  8.733221e-03  1.000000e-03
   endloop
 endfacet
 facet normal  1.769532e-01  9.842193e-01  0.000000e+00
   outer loop
     vertex  6.823105e-03  6.462742e-03  0.000000e+00
     vertex  7.013638e-03  6.428486e-03  1.000000e-03
     vertex  7.013638e-03  6.428486e-03  0.000000e+00
   endloop
 endfacet
 facet normal  1.769532e-01  9.842193e-01 -0.000000e+00
   outer loop
     vertex  6.823105e-03  6.462742e-03  0.000000e+00
     vertex  6.823105e-03  6.462742e-03  1.000000e-03
     vertex  7.013638e-03  6.428486e-03  1.000000e-03
   endloop
 endfacet
 facet normal  9.884803e-02  9.951025e-01  0.000000e+00
   outer loop
     vertex  1.258742e-03  7.165215e-03  0.000000e+00
     vertex  1.470018e-03  7.144228e-03  1.000000e-03
     vertex  1.470018e-03  7.144228e-03  0.000000e+00
   endloop
 endfacet
 facet normal  9.884803e-02  9.951025e-01 -0.000000e+00
   outer loop
     vertex  1.258742e-03  7.165215e-03  0.000000e+00
     vertex  1.258742e-03  7.165215e-03  1.000000e-03
     vertex  1.470018e-03  7.144228e-03  1.000000e-03
   endloop
 endfacet
 facet normal  9.684534e-02  9.952994e-01  0.000000e+00
   outer loop
     vertex -6.222390e-04  7.348243e-03  0.000000e+00
     vertex -4.156980e-04  7.328146e-03  1.000000e-03
     vertex -4.156980e-04  7.328146e-03  0.000000e+00
   endloop
 endfacet
 facet normal  9.684534e-02  9.952994e-01 -0.000000e+00
   outer loop
     vertex -6.222390e-04  7.348243e-03  0.000000e+00
     vertex -6.222390e-04  7.348243e-03  1.000000e-03
     vertex -4.156980e-04  7.328146e-03  1.000000e-03
   endloop
 endfacet
 facet normal  1.243681e-01  9.922362e-01  0.000000e+00
   outer loop
     vertex -3.812116e-03  7.693293e-03  0.000000e+00
     vertex -3.619043e-03  7.669093e-03  1.000000e-03
     vertex -3.619043e-03  7.669093e-03  0.000000e+00
   endloop
 endfacet
 facet normal  1.243681e-01  9.922362e-01 -0.000000e+00
   outer loop
     vertex -3.812116e-03  7.693293e-03  0.000000e+00
     vertex -3.812116e-03  7.693293e-03  1.000000e-03
     vertex -3.619043e-03  7.669093e-03  1.000000e-03
   endloop
 endfacet
 facet normal  1.077127e-01  9.941821e-01  0.000000e+00
   outer loop
     vertex  2.740144e-03  7.013131e-03  0.000000e+00
     vertex  2.951565e-03  6.990225e-03  1.000000e-03
     vertex  2.951565e-03  6.990225e-03  0.000000e+00
   endloop
 endfacet
 facet normal  1.077127e-01  9.941821e-01 -0.000000e+00
   outer loop
     vertex  2.740144e-03  7.013131e-03  0.000000e+00
     vertex  2.740144e-03  7.013131e-03  1.000000e-03
     vertex  2.951565e-03  6.990225e-03  1.000000e-03
   endloop
 endfacet
 facet normal  2.097068e-01  9.777643e-01  0.000000e+00
   outer loop
     vertex  7.756686e-03  6.282792e-03  0.000000e+00
     vertex  7.937373e-03  6.244039e-03  1.000000e-03
     vertex  7.937373e-03  6.244039e-03  0.000000e+00
   endloop
 endfacet
 facet normal  2.097068e-01  9.777643e-01 -0.000000e+00
   outer loop
     vertex  7.756686e-03  6.282792e-03  0.000000e+00
     vertex  7.756686e-03  6.282792e-03  1.000000e-03
     vertex  7.937373e-03  6.244039e-03  1.000000e-03
   endloop
 endfacet
 facet normal  1.135374e-01  9.935337e-01  0.000000e+00
   outer loop
     vertex  3.373485e-03  6.943322e-03  0.000000e+00
     vertex  3.583826e-03  6.919285e-03  1.000000e-03
     vertex  3.583826e-03  6.919285e-03  0.000000e+00
   endloop
 endfacet
 facet normal  1.135374e-01  9.935337e-01 -0.000000e+00
   outer loop
     vertex  3.373485e-03  6.943322e-03  0.000000e+00
     vertex  3.373485e-03  6.943322e-03  1.000000e-03
     vertex  3.583826e-03  6.919285e-03  1.000000e-03
   endloop
 endfacet
 facet normal  9.748139e-02  9.952373e-01  0.000000e+00
   outer loop
     vertex  8.371550e-04  7.206640e-03  0.000000e+00
     vertex  1.047767e-03  7.186011e-03  1.000000e-03
     vertex  1.047767e-03  7.186011e-03  0.000000e+00
   endloop
 endfacet
 facet normal  9.748139e-02  9.952373e-01 -0.000000e+00
   outer loop
     vertex  8.371550e-04  7.206640e-03  0.000000e+00
     vertex  8.371550e-04  7.206640e-03  1.000000e-03
     vertex  1.047767e-03  7.186011e-03  1.000000e-03
   endloop
 endfacet
 facet normal  2.827466e-01  9.591946e-01  0.000000e+00
   outer loop
     vertex  9.139606e-03  5.942613e-03  0.000000e+00
     vertex  9.301940e-03  5.894761e-03  1.000000e-03
     vertex  9.301940e-03  5.894761e-03  0.000000e+00
   endloop
 endfacet
 facet normal  2.827466e-01  9.591946e-01 -0.000000e+00
   outer loop
     vertex  9.139606e-03  5.942613e-03  0.000000e+00
     vertex  9.139606e-03  5.942613e-03  1.000000e-03
     vertex  9.301940e-03  5.894761e-03  1.000000e-03
   endloop
 endfacet
 facet normal  2.016122e-01  9.794654e-01  0.000000e+00
   outer loop
     vertex -7.223339e-03  8.258713e-03  0.000000e+00
     vertex -7.034094e-03  8.219759e-03  1.000000e-03
     vertex -7.034094e-03  8.219759e-03  0.000000e+00
   endloop
 endfacet
 facet normal  2.016122e-01  9.794654e-01 -0.000000e+00
   outer loop
     vertex -7.223339e-03  8.258713e-03  0.000000e+00
     vertex -7.223339e-03  8.258713e-03  1.000000e-03
     vertex -7.034094e-03  8.219759e-03  1.000000e-03
   endloop
 endfacet
 facet normal  1.060510e-01  9.943607e-01  0.000000e+00
   outer loop
     vertex  2.528522e-03  7.035701e-03  0.000000e+00
     vertex  2.740144e-03  7.013131e-03  1.000000e-03
     vertex  2.740144e-03  7.013131e-03  0.000000e+00
   endloop
 endfacet
 facet normal  1.060510e-01  9.943607e-01 -0.000000e+00
   outer loop
     vertex  2.528522e-03  7.035701e-03  0.000000e+00
     vertex  2.528522e-03  7.035701e-03  1.000000e-03
     vertex  2.740144e-03  7.013131e-03  1.000000e-03
   endloop
 endfacet
 facet normal  1.157733e-01  9.932757e-01  0.000000e+00
   outer loop
     vertex  3.583826e-03  6.919285e-03  0.000000e+00
     vertex  3.793646e-03  6.894829e-03  1.000000e-03
     vertex  3.793646e-03  6.894829e-03  0.000000e+00
   endloop
 endfacet
 facet normal  1.157733e-01  9.932757e-01 -0.000000e+00
   outer loop
     vertex  3.583826e-03  6.919285e-03  0.000000e+00
     vertex  3.583826e-03  6.919285e-03  1.000000e-03
     vertex  3.793646e-03  6.894829e-03  1.000000e-03
   endloop
 endfacet
 facet normal  9.868958e-02  9.951183e-01  0.000000e+00
   outer loop
     vertex -1.237178e-03  7.408780e-03  0.000000e+00
     vertex -1.033011e-03  7.388532e-03  1.000000e-03
     vertex -1.033011e-03  7.388532e-03  0.000000e+00
   endloop
 endfacet
 facet normal  9.868958e-02  9.951183e-01 -0.000000e+00
   outer loop
     vertex -1.237178e-03  7.408780e-03  0.000000e+00
     vertex -1.237178e-03  7.408780e-03  1.000000e-03
     vertex -1.033011e-03  7.388532e-03  1.000000e-03
   endloop
 endfacet
 facet normal  1.095154e-01  9.939851e-01  0.000000e+00
   outer loop
     vertex  2.951565e-03  6.990225e-03  0.000000e+00
     vertex  3.162705e-03  6.966962e-03  1.000000e-03
     vertex  3.162705e-03  6.966962e-03  0.000000e+00
   endloop
 endfacet
 facet normal  1.095154e-01  9.939851e-01 -0.000000e+00
   outer loop
     vertex  2.951565e-03  6.990225e-03  0.000000e+00
     vertex  2.951565e-03  6.990225e-03  1.000000e-03
     vertex  3.162705e-03  6.966962e-03  1.000000e-03
   endloop
 endfacet
 facet normal  3.874301e-01  9.218991e-01  0.000000e+00
   outer loop
     vertex  1.036919e-02  5.519805e-03  0.000000e+00
     vertex  1.051173e-02  5.459901e-03  1.000000e-03
     vertex  1.051173e-02  5.459901e-03  0.000000e+00
   endloop
 endfacet
 facet normal  3.874301e-01  9.218991e-01 -0.000000e+00
   outer loop
     vertex  1.036919e-02  5.519805e-03  0.000000e+00
     vertex  1.036919e-02  5.519805e-03  1.000000e-03
     vertex  1.051173e-02  5.459901e-03  1.000000e-03
   endloop
 endfacet
 facet normal  2.133550e-01  9.769747e-01  0.000000e+00
   outer loop
     vertex -1.066894e-02  9.040620e-03  0.000000e+00
     vertex -1.047794e-02  8.998909e-03  1.000000e-03
     vertex -1.047794e-02  8.998909e-03  0.000000e+00
   endloop
 endfacet
 facet normal  2.133550e-01  9.769747e-01 -0.000000e+00
   outer loop
     vertex -1.066894e-02  9.040620e-03  0.000000e+00
     vertex -1.066894e-02  9.040620e-03  1.000000e-03
     vertex -1.047794e-02  8.998909e-03  1.000000e-03
   endloop
 endfacet
 facet normal  9.629934e-02  9.953524e-01  0.000000e+00
   outer loop
     vertex -4.890000e-07  7.287918e-03  0.000000e+00
     vertex  2.080920e-04  7.267738e-03  1.000000e-03
     vertex  2.080920e-04  7.267738e-03  0.000000e+00
   endloop
 endfacet
 facet normal  9.629934e-02  9.953524e-01 -0.000000e+00
   outer loop
     vertex -4.890000e-07  7.287918e-03  0.000000e+00
     vertex -4.890000e-07  7.287918e-03  1.000000e-03
     vertex  2.080920e-04  7.267738e-03  1.000000e-03
   endloop
 endfacet
 facet normal  1.276977e-01  9.918131e-01  0.000000e+00
   outer loop
     vertex -4.004494e-03  7.718062e-03  0.000000e+00
     vertex -3.812116e-03  7.693293e-03  1.000000e-03
     vertex -3.812116e-03  7.693293e-03  0.000000e+00
   endloop
 endfacet
 facet normal  1.276977e-01  9.918131e-01 -0.000000e+00
   outer loop
     vertex -4.004494e-03  7.718062e-03  0.000000e+00
     vertex -4.004494e-03  7.718062e-03  1.000000e-03
     vertex -3.812116e-03  7.693293e-03  1.000000e-03
   endloop
 endfacet
 facet normal  2.262333e-01  9.740732e-01  0.000000e+00
   outer loop
     vertex -8.748330e-03  8.597962e-03  0.000000e+00
     vertex -8.556601e-03  8.553432e-03  1.000000e-03
     vertex -8.556601e-03  8.553432e-03  0.000000e+00
   endloop
 endfacet
 facet normal  2.262333e-01  9.740732e-01 -0.000000e+00
   outer loop
     vertex -8.748330e-03  8.597962e-03  0.000000e+00
     vertex -8.748330e-03  8.597962e-03  1.000000e-03
     vertex -8.556601e-03  8.553432e-03  1.000000e-03
   endloop
 endfacet
 facet normal  1.183301e-01  9.929743e-01  0.000000e+00
   outer loop
     vertex -3.425231e-03  7.645419e-03  0.000000e+00
     vertex -3.230639e-03  7.622230e-03  1.000000e-03
     vertex -3.230639e-03  7.622230e-03  0.000000e+00
   endloop
 endfacet
 facet normal  1.183301e-01  9.929743e-01 -0.000000e+00
   outer loop
     vertex -3.425231e-03  7.645419e-03  0.000000e+00
     vertex -3.425231e-03  7.645419e-03  1.000000e-03
     vertex -3.230639e-03  7.622230e-03  1.000000e-03
   endloop
 endfacet
 facet normal  1.955834e-01  9.806871e-01  0.000000e+00
   outer loop
     vertex  7.389105e-03  6.357437e-03  0.000000e+00
     vertex  7.573912e-03  6.320580e-03  1.000000e-03
     vertex  7.573912e-03  6.320580e-03  0.000000e+00
   endloop
 endfacet
 facet normal  1.955834e-01  9.806871e-01 -0.000000e+00
   outer loop
     vertex  7.389105e-03  6.357437e-03  0.000000e+00
     vertex  7.389105e-03  6.357437e-03  1.000000e-03
     vertex  7.573912e-03  6.320580e-03  1.000000e-03
   endloop
 endfacet
 facet normal  2.243736e-01  9.745032e-01  0.000000e+00
   outer loop
     vertex -8.556601e-03  8.553432e-03  0.000000e+00
     vertex -8.365165e-03  8.509355e-03  1.000000e-03
     vertex -8.365165e-03  8.509355e-03  0.000000e+00
   endloop
 endfacet
 facet normal  2.243736e-01  9.745032e-01 -0.000000e+00
   outer loop
     vertex -8.556601e-03  8.553432e-03  0.000000e+00
     vertex -8.556601e-03  8.553432e-03  1.000000e-03
     vertex -8.365165e-03  8.509355e-03  1.000000e-03
   endloop
 endfacet
 facet normal  9.634454e-02  9.953480e-01  0.000000e+00
   outer loop
     vertex -2.084340e-04  7.308046e-03  0.000000e+00
     vertex -4.890000e-07  7.287918e-03  1.000000e-03
     vertex -4.890000e-07  7.287918e-03  0.000000e+00
   endloop
 endfacet
 facet normal  9.634454e-02  9.953480e-01 -0.000000e+00
   outer loop
     vertex -2.084340e-04  7.308046e-03  0.000000e+00
     vertex -2.084340e-04  7.308046e-03  1.000000e-03
     vertex -4.890000e-07  7.287918e-03  1.000000e-03
   endloop
 endfacet
 facet normal  1.744586e-01  9.846645e-01  0.000000e+00
   outer loop
     vertex -6.090621e-03  8.038796e-03  0.000000e+00
     vertex -5.902147e-03  8.005403e-03  1.000000e-03
     vertex -5.902147e-03  8.005403e-03  0.000000e+00
   endloop
 endfacet
 facet normal  1.744586e-01  9.846645e-01 -0.000000e+00
   outer loop
     vertex -6.090621e-03  8.038796e-03  0.000000e+00
     vertex -6.090621e-03  8.038796e-03  1.000000e-03
     vertex -5.902147e-03  8.005403e-03  1.000000e-03
   endloop
 endfacet
 facet normal  2.519719e-01  9.677345e-01  0.000000e+00
   outer loop
     vertex  8.638206e-03  6.078646e-03  0.000000e+00
     vertex  8.807709e-03  6.034512e-03  1.000000e-03
     vertex  8.807709e-03  6.034512e-03  0.000000e+00
   endloop
 endfacet
 facet normal  2.519719e-01  9.677345e-01 -0.000000e+00
   outer loop
     vertex  8.638206e-03  6.078646e-03  0.000000e+00
     vertex  8.638206e-03  6.078646e-03  1.000000e-03
     vertex  8.807709e-03  6.034512e-03  1.000000e-03
   endloop
 endfacet
 facet normal  1.086343e-01  9.940818e-01  0.000000e+00
   outer loop
     vertex -2.641874e-03  7.555182e-03  0.000000e+00
     vertex -2.443880e-03  7.533545e-03  1.000000e-03
     vertex -2.443880e-03  7.533545e-03  0.000000e+00
   endloop
 endfacet
 facet normal  1.086343e-01  9.940818e-01 -0.000000e+00
   outer loop
     vertex -2.641874e-03  7.555182e-03  0.000000e+00
     vertex -2.641874e-03  7.555182e-03  1.000000e-03
     vertex -2.443880e-03  7.533545e-03  1.000000e-03
   endloop
 endfacet
 facet normal  1.312123e-01  9.913543e-01  0.000000e+00
   outer loop
     vertex -4.196226e-03  7.743439e-03  0.000000e+00
     vertex -4.004494e-03  7.718062e-03  1.000000e-03
     vertex -4.004494e-03  7.718062e-03  0.000000e+00
   endloop
 endfacet
 facet normal  1.312123e-01  9.913543e-01 -0.000000e+00
   outer loop
     vertex -4.196226e-03  7.743439e-03  0.000000e+00
     vertex -4.196226e-03  7.743439e-03  1.000000e-03
     vertex -4.004494e-03  7.718062e-03  1.000000e-03
   endloop
 endfacet
 facet normal  4.688353e-01  8.832856e-01  0.000000e+00
   outer loop
     vertex  1.105746e-02  5.202217e-03  0.000000e+00
     vertex  1.118788e-02  5.132993e-03  1.000000e-03
     vertex  1.118788e-02  5.132993e-03  0.000000e+00
   endloop
 endfacet
 facet normal  4.688353e-01  8.832856e-01 -0.000000e+00
   outer loop
     vertex  1.105746e-02  5.202217e-03  0.000000e+00
     vertex  1.105746e-02  5.202217e-03  1.000000e-03
     vertex  1.118788e-02  5.132993e-03  1.000000e-03
   endloop
 endfacet
 facet normal  1.542392e-01  9.880335e-01  0.000000e+00
   outer loop
     vertex -1.197897e-02  9.286095e-03  0.000000e+00
     vertex -1.179577e-02  9.257496e-03  1.000000e-03
     vertex -1.179577e-02  9.257496e-03  0.000000e+00
   endloop
 endfacet
 facet normal  1.542392e-01  9.880335e-01 -0.000000e+00
   outer loop
     vertex -1.197897e-02  9.286095e-03  0.000000e+00
     vertex -1.197897e-02  9.286095e-03  1.000000e-03
     vertex -1.179577e-02  9.257496e-03  1.000000e-03
   endloop
 endfacet
 facet normal  1.558799e-01  9.877760e-01  0.000000e+00
   outer loop
     vertex -5.336173e-03  7.910668e-03  0.000000e+00
     vertex -5.147128e-03  7.880835e-03  1.000000e-03
     vertex -5.147128e-03  7.880835e-03  0.000000e+00
   endloop
 endfacet
 facet normal  1.558799e-01  9.877760e-01 -0.000000e+00
   outer loop
     vertex -5.336173e-03  7.910668e-03  0.000000e+00
     vertex -5.336173e-03  7.910668e-03  1.000000e-03
     vertex -5.147128e-03  7.880835e-03  1.000000e-03
   endloop
 endfacet
 facet normal  2.289671e-01  9.734342e-01  0.000000e+00
   outer loop
     vertex -9.324894e-03  8.733221e-03  0.000000e+00
     vertex -9.132526e-03  8.687973e-03  1.000000e-03
     vertex -9.132526e-03  8.687973e-03  0.000000e+00
   endloop
 endfacet
 facet normal  2.289671e-01  9.734342e-01 -0.000000e+00
   outer loop
     vertex -9.324894e-03  8.733221e-03  0.000000e+00
     vertex -9.324894e-03  8.733221e-03  1.000000e-03
     vertex -9.132526e-03  8.687973e-03  1.000000e-03
   endloop
 endfacet
 facet normal  1.660500e-01  9.861173e-01  0.000000e+00
   outer loop
     vertex -1.179577e-02  9.257496e-03  0.000000e+00
     vertex -1.161100e-02  9.226382e-03  1.000000e-03
     vertex -1.161100e-02  9.226382e-03  0.000000e+00
   endloop
 endfacet
 facet normal  1.660500e-01  9.861173e-01 -0.000000e+00
   outer loop
     vertex -1.179577e-02  9.257496e-03  0.000000e+00
     vertex -1.179577e-02  9.257496e-03  1.000000e-03
     vertex -1.161100e-02  9.226382e-03  1.000000e-03
   endloop
 endfacet
 facet normal  1.033395e-01  9.946461e-01  0.000000e+00
   outer loop
     vertex -2.045210e-03  7.491125e-03  0.000000e+00
     vertex -1.844528e-03  7.470275e-03  1.000000e-03
     vertex -1.844528e-03  7.470275e-03  0.000000e+00
   endloop
 endfacet
 facet normal  1.033395e-01  9.946461e-01 -0.000000e+00
   outer loop
     vertex -2.045210e-03  7.491125e-03  0.000000e+00
     vertex -2.045210e-03  7.491125e-03  1.000000e-03
     vertex -1.844528e-03  7.470275e-03  1.000000e-03
   endloop
 endfacet
 facet normal  1.018647e-01  9.947983e-01  0.000000e+00
   outer loop
     vertex  1.893204e-03  7.101599e-03  0.000000e+00
     vertex  2.104977e-03  7.079914e-03  1.000000e-03
     vertex  2.104977e-03  7.079914e-03  0.000000e+00
   endloop
 endfacet
 facet normal  1.018647e-01  9.947983e-01 -0.000000e+00
   outer loop
     vertex  1.893204e-03  7.101599e-03  0.000000e+00
     vertex  1.893204e-03  7.101599e-03  1.000000e-03
     vertex  2.104977e-03  7.079914e-03  1.000000e-03
   endloop
 endfacet
 facet normal  6.174480e-03  9.999809e-01  0.000000e+00
   outer loop
     vertex -1.336914e-02  9.399182e-03  0.000000e+00
     vertex -1.320411e-02  9.398163e-03  1.000000e-03
     vertex -1.320411e-02  9.398163e-03  0.000000e+00
   endloop
 endfacet
 facet normal  6.174480e-03  9.999809e-01 -0.000000e+00
   outer loop
     vertex -1.336914e-02  9.399182e-03  0.000000e+00
     vertex -1.336914e-02  9.399182e-03  1.000000e-03
     vertex -1.320411e-02  9.398163e-03  1.000000e-03
   endloop
 endfacet
 facet normal  1.206986e-01  9.926892e-01  0.000000e+00
   outer loop
     vertex  4.002863e-03  6.869933e-03  0.000000e+00
     vertex  4.211396e-03  6.844578e-03  1.000000e-03
     vertex  4.211396e-03  6.844578e-03  0.000000e+00
   endloop
 endfacet
 facet normal  1.206986e-01  9.926892e-01 -0.000000e+00
   outer loop
     vertex  4.002863e-03  6.869933e-03  0.000000e+00
     vertex  4.002863e-03  6.869933e-03  1.000000e-03
     vertex  4.211396e-03  6.844578e-03  1.000000e-03
   endloop
 endfacet
 facet normal  1.514118e-01  9.884708e-01  0.000000e+00
   outer loop
     vertex -5.147128e-03  7.880835e-03  0.000000e+00
     vertex -4.957786e-03  7.851832e-03  1.000000e-03
     vertex -4.957786e-03  7.851832e-03  0.000000e+00
   endloop
 endfacet
 facet normal  1.514118e-01  9.884708e-01 -0.000000e+00
   outer loop
     vertex -5.147128e-03  7.880835e-03  0.000000e+00
     vertex -5.147128e-03  7.880835e-03  1.000000e-03
     vertex -4.957786e-03  7.851832e-03  1.000000e-03
   endloop
 endfacet
 facet normal  2.253558e-01  9.742765e-01  0.000000e+00
   outer loop
     vertex  8.115917e-03  6.204284e-03  0.000000e+00
     vertex  8.292268e-03  6.163493e-03  1.000000e-03
     vertex  8.292268e-03  6.163493e-03  0.000000e+00
   endloop
 endfacet
 facet normal  2.253558e-01  9.742765e-01 -0.000000e+00
   outer loop
     vertex  8.115917e-03  6.204284e-03  0.000000e+00
     vertex  8.115917e-03  6.204284e-03  1.000000e-03
     vertex  8.292268e-03  6.163493e-03  1.000000e-03
   endloop
 endfacet
 facet normal  1.943791e-01  9.809265e-01  0.000000e+00
   outer loop
     vertex -1.123735e-02  9.157474e-03  0.000000e+00
     vertex -1.104879e-02  9.120109e-03  1.000000e-03
     vertex -1.104879e-02  9.120109e-03  0.000000e+00
   endloop
 endfacet
 facet normal  1.943791e-01  9.809265e-01 -0.000000e+00
   outer loop
     vertex -1.123735e-02  9.157474e-03  0.000000e+00
     vertex -1.123735e-02  9.157474e-03  1.000000e-03
     vertex -1.104879e-02  9.120109e-03  1.000000e-03
   endloop
 endfacet
 facet normal  2.164322e-01  9.762977e-01  0.000000e+00
   outer loop
     vertex -7.983253e-03  8.422908e-03  0.000000e+00
     vertex -7.792795e-03  8.380686e-03  1.000000e-03
     vertex -7.792795e-03  8.380686e-03  0.000000e+00
   endloop
 endfacet
 facet normal  2.164322e-01  9.762977e-01 -0.000000e+00
   outer loop
     vertex -7.983253e-03  8.422908e-03  0.000000e+00
     vertex -7.983253e-03  8.422908e-03  1.000000e-03
     vertex -7.792795e-03  8.380686e-03  1.000000e-03
   endloop
 endfacet
 facet normal  3.581132e-01  9.336782e-01  0.000000e+00
   outer loop
     vertex  1.007668e-02  5.634588e-03  0.000000e+00
     vertex  1.022417e-02  5.578015e-03  1.000000e-03
     vertex  1.022417e-02  5.578015e-03  0.000000e+00
   endloop
 endfacet
 facet normal  3.581132e-01  9.336782e-01 -0.000000e+00
   outer loop
     vertex  1.007668e-02  5.634588e-03  0.000000e+00
     vertex  1.007668e-02  5.634588e-03  1.000000e-03
     vertex  1.022417e-02  5.578015e-03  1.000000e-03
   endloop
 endfacet
 facet normal  9.972263e-02  9.950153e-01  0.000000e+00
   outer loop
     vertex  1.470018e-03  7.144228e-03  0.000000e+00
     vertex  1.681528e-03  7.123030e-03  1.000000e-03
     vertex  1.681528e-03  7.123030e-03  0.000000e+00
   endloop
 endfacet
 facet normal  9.972263e-02  9.950153e-01 -0.000000e+00
   outer loop
     vertex  1.470018e-03  7.144228e-03  0.000000e+00
     vertex  1.470018e-03  7.144228e-03  1.000000e-03
     vertex  1.681528e-03  7.123030e-03  1.000000e-03
   endloop
 endfacet
 facet normal  1.031267e-01  9.946682e-01  0.000000e+00
   outer loop
     vertex  2.104977e-03  7.079914e-03  0.000000e+00
     vertex  2.316774e-03  7.057955e-03  1.000000e-03
     vertex  2.316774e-03  7.057955e-03  0.000000e+00
   endloop
 endfacet
 facet normal  1.031267e-01  9.946682e-01 -0.000000e+00
   outer loop
     vertex  2.104977e-03  7.079914e-03  0.000000e+00
     vertex  2.104977e-03  7.079914e-03  1.000000e-03
     vertex  2.316774e-03  7.057955e-03  1.000000e-03
   endloop
 endfacet
 facet normal  1.388102e-01  9.903190e-01  0.000000e+00
   outer loop
     vertex -4.577965e-03  7.796182e-03  0.000000e+00
     vertex -4.387364e-03  7.769466e-03  1.000000e-03
     vertex -4.387364e-03  7.769466e-03  0.000000e+00
   endloop
 endfacet
 facet normal  1.388102e-01  9.903190e-01 -0.000000e+00
   outer loop
     vertex -4.577965e-03  7.796182e-03  0.000000e+00
     vertex -4.577965e-03  7.796182e-03  1.000000e-03
     vertex -4.387364e-03  7.769466e-03  1.000000e-03
   endloop
 endfacet
 facet normal  1.106896e-01  9.938550e-01  0.000000e+00
   outer loop
     vertex -1.251754e-02  9.354661e-03  0.000000e+00
     vertex -1.234002e-02  9.334889e-03  1.000000e-03
     vertex -1.234002e-02  9.334889e-03  0.000000e+00
   endloop
 endfacet
 facet normal  1.106896e-01  9.938550e-01 -0.000000e+00
   outer loop
     vertex -1.251754e-02  9.354661e-03  0.000000e+00
     vertex -1.251754e-02  9.354661e-03  1.000000e-03
     vertex -1.234002e-02  9.334889e-03  1.000000e-03
   endloop
 endfacet
 facet normal  1.713699e-01  9.852068e-01  0.000000e+00
   outer loop
     vertex  6.630795e-03  6.496193e-03  0.000000e+00
     vertex  6.823105e-03  6.462742e-03  1.000000e-03
     vertex  6.823105e-03  6.462742e-03  0.000000e+00
   endloop
 endfacet
 facet normal  1.713699e-01  9.852068e-01 -0.000000e+00
   outer loop
     vertex  6.630795e-03  6.496193e-03  0.000000e+00
     vertex  6.630795e-03  6.496193e-03  1.000000e-03
     vertex  6.823105e-03  6.462742e-03  1.000000e-03
   endloop
 endfacet
endsolid
