solid outlet
  facet normal 0.00000000e+00 0.00000000e+00 1.00000000e+00
    outer loop
      vertex -7.50762435e-03 0.00000000e+00 7.56663596e-02
      vertex -2.44212541e-03 0.00000000e+00 7.56663596e-02
      vertex -2.61472810e-03 1.31104760e-03 7.56663596e-02
    endloop
  endfacet
  facet normal 0.00000000e+00 0.00000000e+00 1.00000000e+00
    outer loop
      vertex -7.50762435e-03 0.00000000e+00 7.56663596e-02
      vertex -2.61472810e-03 1.31104760e-03 7.56663596e-02
      vertex -3.12077358e-03 2.53274947e-03 7.56663596e-02
    endloop
  endfacet
  facet normal 0.00000000e+00 0.00000000e+00 1.00000000e+00
    outer loop
      vertex -7.50762435e-03 0.00000000e+00 7.56663596e-02
      vertex -3.12077358e-03 2.53274947e-03 7.56663596e-02
      vertex -3.92577570e-03 3.58184865e-03 7.56663596e-02
    endloop
  endfacet
  facet normal 0.00000000e+00 0.00000000e+00 1.00000000e+00
    outer loop
      vertex -7.50762435e-03 0.00000000e+00 7.56663596e-02
      vertex -3.92577570e-03 3.58184865e-03 7.56663596e-02
      vertex -4.97487488e-03 4.38685077e-03 7.56663596e-02
    endloop
  endfacet
  facet normal 0.00000000e+00 0.00000000e+00 1.00000000e+00
    outer loop
      vertex -7.50762435e-03 0.00000000e+00 7.56663596e-02
      vertex -4.97487488e-03 4.38685077e-03 7.56663596e-02
      vertex -6.19657675e-03 4.89289625e-03 7.56663596e-02
    endloop
  endfacet
  facet normal 0.00000000e+00 0.00000000e+00 1.00000000e+00
    outer loop
      vertex -7.50762435e-03 0.00000000e+00 7.56663596e-02
      vertex -6.19657675e-03 4.89289625e-03 7.56663596e-02
      vertex -7.50762435e-03 5.06549894e-03 7.56663596e-02
    endloop
  endfacet
  facet normal 0.00000000e+00 -0.00000000e+00 1.00000000e+00
    outer loop
      vertex -7.50762435e-03 0.00000000e+00 7.56663596e-02
      vertex -7.50762435e-03 5.06549894e-03 7.56663596e-02
      vertex -8.81867195e-03 4.89289625e-03 7.56663596e-02
    endloop
  endfacet
  facet normal 0.00000000e+00 0.00000000e+00 1.00000000e+00
    outer loop
      vertex -7.50762435e-03 0.00000000e+00 7.56663596e-02
      vertex -8.81867195e-03 4.89289625e-03 7.56663596e-02
      vertex -1.00403738e-02 4.38685077e-03 7.56663596e-02
    endloop
  endfacet
  facet normal 0.00000000e+00 0.00000000e+00 1.00000000e+00
    outer loop
      vertex -7.50762435e-03 0.00000000e+00 7.56663596e-02
      vertex -1.00403738e-02 4.38685077e-03 7.56663596e-02
      vertex -1.10894730e-02 3.58184865e-03 7.56663596e-02
    endloop
  endfacet
  facet normal 0.00000000e+00 0.00000000e+00 1.00000000e+00
    outer loop
      vertex -7.50762435e-03 0.00000000e+00 7.56663596e-02
      vertex -1.10894730e-02 3.58184865e-03 7.56663596e-02
      vertex -1.18944751e-02 2.53274947e-03 7.56663596e-02
    endloop
  endfacet
  facet normal 0.00000000e+00 0.00000000e+00 1.00000000e+00
    outer loop
      vertex -7.50762435e-03 0.00000000e+00 7.56663596e-02
      vertex -1.18944751e-02 2.53274947e-03 7.56663596e-02
      vertex -1.24005206e-02 1.31104760e-03 7.56663596e-02
    endloop
  endfacet
  facet normal 0.00000000e+00 0.00000000e+00 1.00000000e+00
    outer loop
      vertex -7.50762435e-03 0.00000000e+00 7.56663596e-02
      vertex -1.24005206e-02 1.31104760e-03 7.56663596e-02
      vertex -1.25731233e-02 6.20344707e-19 7.56663596e-02
    endloop
  endfacet
  facet normal 0.00000000e+00 0.00000000e+00 1.00000000e+00
    outer loop
      vertex -7.50762435e-03 0.00000000e+00 7.56663596e-02
      vertex -1.25731233e-02 6.20344707e-19 7.56663596e-02
      vertex -1.24005206e-02 -1.31104760e-03 7.56663596e-02
    endloop
  endfacet
  facet normal 0.00000000e+00 0.00000000e+00 1.00000000e+00
    outer loop
      vertex -7.50762435e-03 0.00000000e+00 7.56663596e-02
      vertex -1.24005206e-02 -1.31104760e-03 7.56663596e-02
      vertex -1.18944751e-02 -2.53274947e-03 7.56663596e-02
    endloop
  endfacet
  facet normal 0.00000000e+00 0.00000000e+00 1.00000000e+00
    outer loop
      vertex -7.50762435e-03 0.00000000e+00 7.56663596e-02
      vertex -1.18944751e-02 -2.53274947e-03 7.56663596e-02
      vertex -1.10894730e-02 -3.58184865e-03 7.56663596e-02
    endloop
  endfacet
  facet normal 0.00000000e+00 0.00000000e+00 1.00000000e+00
    outer loop
      vertex -7.50762435e-03 0.00000000e+00 7.56663596e-02
      vertex -1.10894730e-02 -3.58184865e-03 7.56663596e-02
      vertex -1.00403738e-02 -4.38685077e-03 7.56663596e-02
    endloop
  endfacet
  facet normal 0.00000000e+00 0.00000000e+00 1.00000000e+00
    outer loop
      vertex -7.50762435e-03 0.00000000e+00 7.56663596e-02
      vertex -1.00403738e-02 -4.38685077e-03 7.56663596e-02
      vertex -8.81867195e-03 -4.89289625e-03 7.56663596e-02
    endloop
  endfacet
  facet normal 0.00000000e+00 0.00000000e+00 1.00000000e+00
    outer loop
      vertex -7.50762435e-03 0.00000000e+00 7.56663596e-02
      vertex -8.81867195e-03 -4.89289625e-03 7.56663596e-02
      vertex -7.50762435e-03 -5.06549894e-03 7.56663596e-02
    endloop
  endfacet
  facet normal 0.00000000e+00 0.00000000e+00 1.00000000e+00
    outer loop
      vertex -7.50762435e-03 0.00000000e+00 7.56663596e-02
      vertex -7.50762435e-03 -5.06549894e-03 7.56663596e-02
      vertex -6.19657675e-03 -4.89289625e-03 7.56663596e-02
    endloop
  endfacet
  facet normal 0.00000000e+00 0.00000000e+00 1.00000000e+00
    outer loop
      vertex -7.50762435e-03 0.00000000e+00 7.56663596e-02
      vertex -6.19657675e-03 -4.89289625e-03 7.56663596e-02
      vertex -4.97487488e-03 -4.38685077e-03 7.56663596e-02
    endloop
  endfacet
  facet normal 0.00000000e+00 0.00000000e+00 1.00000000e+00
    outer loop
      vertex -7.50762435e-03 0.00000000e+00 7.56663596e-02
      vertex -4.97487488e-03 -4.38685077e-03 7.56663596e-02
      vertex -3.92577570e-03 -3.58184865e-03 7.56663596e-02
    endloop
  endfacet
  facet normal 0.00000000e+00 0.00000000e+00 1.00000000e+00
    outer loop
      vertex -7.50762435e-03 0.00000000e+00 7.56663596e-02
      vertex -3.92577570e-03 -3.58184865e-03 7.56663596e-02
      vertex -3.12077358e-03 -2.53274947e-03 7.56663596e-02
    endloop
  endfacet
  facet normal 0.00000000e+00 0.00000000e+00 1.00000000e+00
    outer loop
      vertex -7.50762435e-03 0.00000000e+00 7.56663596e-02
      vertex -3.12077358e-03 -2.53274947e-03 7.56663596e-02
      vertex -2.61472810e-03 -1.31104760e-03 7.56663596e-02
    endloop
  endfacet
  facet normal -0.00000000e+00 0.00000000e+00 1.00000000e+00
    outer loop
      vertex -7.50762435e-03 0.00000000e+00 7.56663596e-02
      vertex -2.61472810e-03 -1.31104760e-03 7.56663596e-02
      vertex -2.44212541e-03 0.00000000e+00 7.56663596e-02
    endloop
  endfacet
endsolid outlet
